<svg class="building-layer-0" data-name="Layer 0 Image" xmlns="http://www.w3.org/2000/svg" xmlns:xlink="http://www.w3.org/1999/xlink" viewBox="0 0 2328 2628"><defs><style>.cls-1{fill:#fff;}.cls-2{fill:none;}</style></defs><title>2000_Cooper_Robertson_G_cutout1</title><path d="M549.36,1847.07l9.37-15c8,1.68,15.38,4.36,20.72,11.47l-7.67,14.71c5.51,5.79,6.9,14,14.17,18.65,3.31,2.11,4.37,7.34,2,11.81-4.25,7.89-8.28,15.9-12.84,23.6-2.6,4.4-7.18,5.56-12.21,2.89-10.83-5.76-21.47-11.91-32-18.22-1.61-1-2.42-3.54-3.23-5.52a64.51,64.51,0,0,1-2.23-7.28c-1.92-7-6-11.73-12.62-15.18-5.16-2.68-5.92-9.32-3.29-14.91a67.07,67.07,0,0,1,3.19-6.19c3.64-6,8.57-7.86,15.22-5.23,3.69,1.46,6.64,3,11.11,1C541.42,1842.64,545.58,1845.7,549.36,1847.07Z"/><path d="M717.15,1586.31c1.89-3.18,2.6-5,3.82-6.31,3.7-4,12.49-3.85,14.58,1.52,3.24,8.34,10.69,10.22,16.72,14.43,0.8,0.56,1.64,1.07,2.86,1.87l-11.53,20.37c-11-7.54-23.35-10.94-32.55-20.86-4.26-4.59-12.36-6.33-19-7.61-2.66-.51-6.77,3.22-9.27,5.9-3.8,4.08-6.67,9-10.16,13.4-0.78,1-2.49,1.22-5.36,2.51a78.22,78.22,0,0,1,1.83-7.75c2.36-6.46,5-12.82,7.28-19.31,1.23-3.54,3.09-5,6.68-3.37,3,1.34,5.89,2.74,10.09,4.7l12.38-37.89,17.8,6.57C725,1565.5,717,1574.15,717.15,1586.31Z"/><path d="M1345.58,762.58l6.6-22.25,85.64,26-5.62,21.77C1402.93,780.58,1375.26,770.61,1345.58,762.58Z"/><path d="M838.27,1342.62c3.47-1.84,7.09-3.43,10.36-5.57,7-4.6,12.13-3,15.93,5a16.64,16.64,0,0,0,3.58,4.41c1.88,1.85,4,3.44,5.95,5.26,8.59,8.13,8.83,9.27,3,19.41-2.92,5.06-6.21,9.9-9.81,15.61-2.45-2.09-4.44-3.25-5.7-4.94-7.48-10.08-14.76-20.32-22.2-30.44-2.18-3-3-5.84-.7-9.05Z"/><path d="M1283.34,1270.72l-9.46-7L1279,1254l19,10.25-14.94,65.66-17.4-4.78c2.83-10.14,3.45-20.26,10-28.51C1281.51,1289.24,1281.49,1280,1283.34,1270.72Z"/><path d="M536.63,1772.5l-4.4,9.14-19.46-10.34c0,3.27-.47,5,0.09,6.24,1.83,4.12,1.07,7.2-1.74,10.85-2.51,3.25-3.48,7.69-5.17,11.59-1.55,3.57-3.15,7.12-4.66,10.51-13.08-3.3-15.14-6.56-11.74-18.23a93,93,0,0,1,4.68-12c2.32-5.16,5.3-9.76,14.27-9.86l-10.39-9.86,3.79-8.2Z"/><path d="M1137.78,1044.93l4.24-14.14h8.56c3,9.77-.87,18.09-2.66,27l-7.34,1.17-3.47,9.16c-4-.19-8.36.48-12.12-0.78-7.81-2.61-4.11-9.51-5.22-15.09a54.14,54.14,0,0,1-2.33,7.07c-0.45,1-2.16,2.1-3,1.9-1.38-.32-2.6-1.59-3.7-2.64-0.35-.34-0.13-1.27-0.18-1.93-0.62-8.9-1.27-17.8-1.8-26.7-0.07-1.17.54-2.38,0.93-4,8.36,1.51,7.81,8.18,8.78,14.56Z"/><path d="M834,1626.05c-10.44-6.08-20.15-11.59-29.66-17.43-1.29-.79-1.68-3.21-2.25-5-1-3.15-1.89-6.37-3.39-11.52l5.67-9.81L835.8,1600c1.73,1,3.49,1.91,5.17,3,2.57,1.63,3.7,4,2.23,6.78C840.46,1614.92,837.45,1620,834,1626.05Z"/><path d="M710.14,2012.83c4.75-2.78,8.76-4.47,11.9-7.16a37.2,37.2,0,0,0,7.27-9.25c2.13-3.56,3.35-7.65,5.36-11.29,1.89-3.43,4.28-6.58,7-10.64l9,4.65c-9.79,21.94-19.36,43-46.43,48.37-4.5-4.92-6.89-11.44-7.88-18.65-0.39-2.83-.44-6,2.94-6.21,2.08-.14,4.68,1.57,6.36,3.17S708.47,2010.1,710.14,2012.83Z"/><path d="M885.06,1169.72c11.33-10.7,23.29-17.13,37.92-17.84,8-.39,10.49.75,12.33,8.38,2.55,10.6,4.09,21.44,6,31.95-13.2,7.05-18.75,4.86-19.18-7.84l6.94,2.86c0.4-.45,1.2-1,1.15-1.38-0.66-6.25-1.34-12.49-2.2-18.71-0.62-4.47-3.61-5.84-7.85-5.86-8.49,0-13.47,2.25-23.13,11.36l4.08,7.18a5.55,5.55,0,0,1-.82,1.77c-2.18,2-4.82,3.07-6.94.42C890.52,1178.41,888.18,1174.38,885.06,1169.72Z"/><path d="M545.25,2077.09l-20.84-52.59,15.1-6.51,20.71,51.15Z"/><path d="M1337,864.64l-5.91,14.57-12-6.72c-6.69-1.13-11.83-1.62-16.77-2.93a161,161,0,0,1-17-5.7c-8.62-3.34-9.72-8.54-3.28-17.36Z"/><path d="M773,1981.35l24.5-45,11.83,5.88c-0.78,8-13.33,32.15-23.75,45.86Z"/><path d="M525.93,1969.81c6.22,9,14.37,15.19,17,25.53,1.64,6.57,1.48,7.54-5.11,9.87-7.41,2.62-14.66,5.69-22.78,8.88-0.34-1.46-1.37-3.51-1.17-5.44,0.51-4.88,1-9.89,2.54-14.5C519,1986.19,522.46,1978.49,525.93,1969.81Z"/><path d="M1089.22,1032.39l-32.22,2.67c-4-7.13-2.47-14-2.34-21.89l32.23-2.56Z"/><path d="M1177.4,1042l-6.7-3,1.51-9.42c6.78-3,14.06-4.87,18-13l2.89,6.83c5.24,1.1,10.48,1.82,15.47,3.35,6,1.83,6.95,4.54,4.79,11.74l-23-6.07c1.65,10.13-1.72,17.81-6.55,26.73Z"/><path d="M1294,246.15l19.53,10.32c-2.92,7.39-7.11,3.6-10.62,2s-6.66-3.68-10.49-5.84l-13.53,42.92c5.89,5.14,15.5.68,21.91,8.05-6.46,3.76-11.84-.09-17.1.26-6.76.45-8-5.92-12.31-9.1,1.53-3.57,3.15-6.83,4.33-10.25,2.39-6.87,5.79-13.7,6.45-20.76C1282.93,255.95,1285.85,250.62,1294,246.15Z"/><path d="M1141.13,1243.55l-8,41.1-12.63-2c2.1-12.44,4-23.76,5.93-35.07C1128.22,1237.23,1130.85,1236.31,1141.13,1243.55Z"/><path d="M1264.15,1411.31c-10.22-6.28-18.35-10.77-25.88-16.1-4.55-3.23-1.37-7,1.36-11,9.41,5.39,18.09,5.77,23.64-5.27,4.12,0.3,7.39,1.23,6.53,5.83C1268.29,1392.84,1266.41,1400.81,1264.15,1411.31Z"/><path d="M1226.27,1275c-4.84-5-8.17-8.48-11.53-11.93-4.68-4.8-5.42-10-2.62-16.22,1.71-3.79,2.46-8,4.17-13.87,4.63,4.93,7.67,8.7,11.25,11.85,5.65,5,5.49,10.66,3.14,17C1229.31,1265.47,1228.19,1269.21,1226.27,1275Z"/><path d="M650.09,1996.3l-6.7,2.27a15.82,15.82,0,0,1-2.13-2.7c-5.8-13-11.51-26-17.34-39-1.39-3.09-1.88-6.08,1.52-7.75s6.55-.6,8.1,3.13c4.59,11,9.16,22.08,13.54,33.2C648.36,1988.75,649,1992.32,650.09,1996.3Z"/><path d="M1294.64,222.61a2.62,2.62,0,0,1,0-.8c0.82-3,.39-7.75,5-7.12,4.4,0.6,1.73,4.83,2.08,7.49a24.33,24.33,0,0,0,1,3.09c6.13,2,12.95,5.7,19.91,6,8.21,0.36,11.88,4.93,14.46,10.89s-1.91,9.64-6.07,13a17.28,17.28,0,0,0-1.89,2.11c-8.35-1.57-8.35-1.57-8.72-7.4h9l3-9.44c-4.41-1.14-8.09-2.1-11.79-3a89.91,89.91,0,0,0-9.46-2.31C1303.43,234,1298.38,229.34,1294.64,222.61Z"/><path d="M1339.75,776.1H1353l-10,25.89-11.29,2.94c1.21-5.41-1.17-8.62-6-11.59-7.06-4.31-6.72-5-2.14-12.88l7.73,8.74C1338.9,787.57,1335.58,779.19,1339.75,776.1Z"/><path d="M730.06,2078.78c-8.44,1.86-14.74-1.62-19.67-8.13a5.93,5.93,0,0,1-1.05-4.14c0.81-4.53-1.83-7.34-5-11.87l-7.35,9.29-3.55-13.62L703.8,2046c7.57,7.71,14.4,14.7,21.26,21.65a16,16,0,0,1,4.9,11.12Z"/><path d="M1316.37,309.41c-6.11-7.27-2.64-13.62-2.33-19,0.32-5.62,3.91-11,6.25-17a22.18,22.18,0,0,0,4.5-.78c11.08-4.29,18.49,1.32,17.14,13-0.26,2.26.08,4.57,0,6.86-0.14,3.63-.74,7.08-4.35,9.18-2.18-3.52-2.43-7.5-1.5-22.48l-9-3.17c-4.4,7.44-8.89,14.17-7.73,23.22C1319.73,301.83,1317.79,304.85,1316.37,309.41Z"/><path d="M1169.06,341.63c-8.42-2.72-11.68-8-10.35-14,2.34-10.59,5.16-21.08,7.41-31.7,1.22-5.77,1.5-11.75,2.63-17.54,0.3-1.52,2.16-3.79,3.4-3.86,3.24-.16,3.31,2.56,2.87,5-2.52,14-4.59,28.06-7.85,41.86C1165.65,327.85,1163.59,333.78,1169.06,341.63Z"/><path d="M1240.07,1463.46l-11.74-5.81c-2.66,2.47-5.16,6.57-7.29,6.38-3.91-.34-7.65-3.11-11.34-5.09a3,3,0,0,1-.91-2.66c0.37-1.47,1.61-4.1,1.92-4,6.7,1.71,5.44-11.92,13.65-7,4.82,2.88,9.77,5.53,14.66,8.31C1243.56,1456.14,1244,1459.31,1240.07,1463.46Z"/><path d="M838.27,1342.62l0.38-.3c-4.23,2.11-6-.55-8-4.92l30.5-25.61,13.21,18.78-1.81,1.79-8.7-7.49c-6.26,3.52-12.82,7.29-20.3,5.47Z"/><path d="M1409.07,972.66c1-6.57,1.59-12,2.66-17.41a7.7,7.7,0,0,1,8.9-5.71c5.56,1.2,7.15,3.55,6.08,9-1.19,6-2.37,12.06-3.5,17.85C1416.89,979,1413.32,975.06,1409.07,972.66Z"/><path d="M1208.23,351.16c11.06-6.21,9.22-17.67,13.69-26.13,2.85-5.4,3-12.15,5-18.09,1.53-4.57,4-8.83,6.06-13.23l2.31,0c0.54,1.71,1.94,3.69,1.49,5.08-4.94,15.38-9.92,30.76-15.49,45.92-1.24,3.39-4.62,6.12-7.43,8.72C1213.34,353.89,1210.86,352.26,1208.23,351.16Z"/><path d="M720.55,1433.29l-9.81-6.07,3-8L703.17,1412c4.11-2.62,5.92.71,8.19,1.63s4.69,2.28,8,3.93l8.42-13.31c1.37-2.18,2.39-5.32,5.85-3.68s2,4.34.69,6.72C729.92,1415.74,725.43,1424.13,720.55,1433.29Z"/><path d="M1104.68,877.15l-7.54,2.43c-0.45-6.12-.77-11.29-1.22-16.44-0.43-4.86-.58-9.8-1.59-14.55-2-9.45-1.22-10.42,9.68-9.15,1.15,5.24-2.82,11.91,3.48,16.2,0.5,0.34.31,3-.4,3.59C1101.26,864.32,1103.81,870.61,1104.68,877.15Z"/><path d="M1213.42,293.92c1.78,2.34,3.49,3.63,3.31,4.55a72.24,72.24,0,0,1-3.1,10.41c-3.56,9.9-7.38,19.72-10.71,29.69-0.54,1.62,1.19,3.87,1.35,5.87s0.36,4.83-.72,5.67c-2.34,1.81-4.1.23-4.88-2.54-1.13-4-3.37-7.78-1.56-12.28C1202.4,322.16,1207.51,309,1213.42,293.92Z"/><path d="M730,2078.75l6.81,10.56-17,18.21c-2.37-1.88-4.43-3-5.76-4.67-3.76-4.74-3.27-10.49,2.3-12.08,7-2,9.21-8,13.76-12A0.14,0.14,0,0,0,730,2078.75Z"/><path d="M1187.74,286.85c0.85,2.84,1.76,4.31,1.61,5.66-1.41,12.87-3.28,25.7-4.4,38.59-0.53,6.14-4.62,9.05-8.72,12.2-0.54.41-2.18-.6-4.51-1.34,9.13-8.66,8.57-19.44,9.68-29.8,0.74-6.91,1.76-13.79,2.91-20.65C1184.52,290.26,1185.95,289.21,1187.74,286.85Z"/><path d="M1175,1118.74l8.43,2.63-5.23,20.72-10.53-2.3C1164.5,1130.86,1162.6,1122.93,1175,1118.74Z"/><path d="M771.13,1510.53c-13.17-3.21-14.94-5.17-11.46-13.54,7.25,3.78,15.32,6.42,17.13,16,4.72,3.58,12.3,2.93,14.23,11.34-6.06-2.44-12.26-4.59-18.07-7.53C771.65,1516.15,771.72,1512.76,771.13,1510.53Z"/><path d="M816.72,1319.17l-6.39-10.32c4.05-2.29,8.56-6.76,10.94-5.82,6.69,2.63,9.56-9.08,16.76-3.29C832.72,1308,824.45,1312.24,816.72,1319.17Z"/><path d="M1109.78,911.2h-9.5l-2.33-24.31,9.73-1.43Z"/><path d="M1101.81,764.26c-6.25.54-9.58-.72-9.34-6.75,0.24-5.84.05-11.71,0.05-18.19,2.29,0,4.83-.57,5.2.09,2.13,3.74,4.58,7.63,5.27,11.75S1102.33,759.48,1101.81,764.26Z"/><path d="M1184.92,1337.23l12,3.7c2.79,6.63-4.29,6.37-5.35,10-1.12,3.78-2.35,7.52-3.66,11.67-4.06-.16-7.22-0.89-6.6-5.47C1182.16,1350.92,1183.52,1344.82,1184.92,1337.23Z"/><path d="M691.6,1444.72c1.49,0.74,3.26,1.47,4.88,2.45,11.76,7.09,15.5,6.38,4.72,21.55a8.28,8.28,0,0,1-2.64-.73c-1.35-.92-2.5-2.12-5.52-4.79l8-2.71-1.4-2.73c-2.72-1.39-6-2.24-8-4.31S686.88,1448.15,691.6,1444.72Z"/><path d="M1302.7,812.59c-2.43-.49-4.73-0.63-6.77-1.43-3.25-1.27-4.32-3.4-2.63-7s2.51-7.43,3.78-11.38l10.16-4.56Z"/><path d="M1097,813.88l-4.18-2.58V798.65h8.34c1.13,8,4.65,15.36,1.18,23.39-3.3,2-6.37,1.12-8.22-2C1093.56,819.14,1095.58,816.71,1097,813.88Z"/><path d="M688.18,1489.85l-6.3-3.3c3.27-6.13,5.57-12.1-.61-18.41,7.69-1.86,12.34.61,16.32,5.2Z"/><path d="M726.1,2051.71l-8.38-8.05c5.75-6.59,13.27-6.36,19.4-9.06,1-.42,3.39.76,4,1.84a4.41,4.41,0,0,1-.72,4.25c-1.86,1.47-4.66,3.45-6.48,3C728.32,2042.19,728.1,2046.29,726.1,2051.71Z"/><path d="M1182.05,847.28c0.95-18.31.95-18.31,8.46-25.54,0.26,3.37.59,5.65,0.59,7.94,0,3.77-.55,7.58-0.2,11.3C1191.41,846.28,1189.57,847.89,1182.05,847.28Z"/><path d="M667.44,2063.66L661,2068.5c1.42,5.28,3.82,11-3.37,14.08-6.09-2.76-2.28-7-1-11.33l-8.13-1.73c0-1.14-.26-2.15,0-2.35,5.58-3.79,11.45-6.56,18.12-6.17Z"/><path d="M1285.3,543.63c-3-9.2.79-14.16,9.73-15.95,3.78,4,5.11,9.35,1.68,14.55C1293.79,546.66,1289.27,545.16,1285.3,543.63Z"/><path d="M1411.79,722.72c-1.31,1.38-2.45,3.09-4,4.15-3.72,2.48-7.45.85-7.38-3.53,0.08-4.77,1.26-9.52,2.06-14.93C1409.6,711.39,1409.91,717.52,1411.79,722.72Z"/><path d="M753.38,1475.39l3.27,7.86,6.37-2.17c1.45,4.8-1.6,8-3.61,12l-12.27-9.24,3.58-8.1Z"/><path d="M1185.55,544.18c-2.55-1.47-5.13-2.38-5.06-3,0.67-6.1,1.78-12.15,2.73-18,6.22-.59,8.28,1.33,6.86,6.23C1188.77,533.85,1187.36,538.26,1185.55,544.18Z"/><path d="M1199.54,527.06l7.49,2.07c-1.22,5.16-2.15,10.29-3.77,15.19-0.44,1.35-2.92,2-4.46,3-0.84-1.55-2.53-3.21-2.35-4.63C1197,537.84,1198.29,533.06,1199.54,527.06Z"/><path d="M1305,642.91c-10.32-.47-11-2.23-6.4-15l8.48,0.82Z"/><path d="M799.58,1658.2l12,6.92c-4.17,10.89-4.36,11-12,8.66V1658.2Z"/><path d="M1164.59,537.92c-0.2-14.93,1.42-18.25,9.15-18.85,1.56,6.31-1.11,11.92-3.38,17.42C1169.93,537.54,1166.74,537.44,1164.59,537.92Z"/><path d="M1206.59,1463.5c7.72,1.24,17.59,8.32,23,16.49-7.18-.13-11.36-5.46-16.79-7.89a20.44,20.44,0,0,1-6.1-4.88C1206.07,1466.56,1206.59,1464.84,1206.59,1463.5Z"/><path d="M1159.1,515.93c-1.52,5.1-2.9,10.37-4.77,15.46-0.36,1-2.8,2-3.91,1.69a4.33,4.33,0,0,1-2.29-3.56,72.39,72.39,0,0,1,2.71-12.49C1152.09,513.16,1154.93,513.63,1159.1,515.93Z"/><path d="M640.89,1486.93c0.73,1.71,2.61,4.08,2.6,6.44,0,6.18-2.82,9.71-6.54,9.24-2.89-.36-4.81-1.77-4.51-5.22C632.94,1491.66,636.06,1486.7,640.89,1486.93Z"/><path d="M776.12,1463.73L766.89,1476c-4.63-.54-4.62-4.78-6.29-7.64C770.41,1460.07,771.12,1459.88,776.12,1463.73Z"/><path d="M1255.92,1432.59c-9.73-3.4-9.73-3.4-9.55-11.5,4.39-.53,9-0.92,12.11,2.85C1261.18,1427.19,1258.61,1429.89,1255.92,1432.59Z"/><path d="M1222.73,1043.13l4.2-15.17c6.17,3,7.63,7.11,7.19,11.88C1233.9,1042.38,1231.47,1043,1222.73,1043.13Z"/><path d="M1192.61,1362.57l8.23-15.39,6.28,2.49-8.42,15.72Z"/><path d="M1136.12,529.6c-1.48-1.54-3.77-2.9-3.64-4a74.72,74.72,0,0,1,2.92-13.3c0.32-1,2.63-2.19,3.81-2s2.51,2.14,2.53,3.34C1141.81,519.28,1140.57,524.58,1136.12,529.6Z"/><path d="M818.76,1744.16l-6.12-3.39,8-14.62c1.93,1.1,4.2,1.66,4.4,2.64C826.3,1735,821.57,1738.85,818.76,1744.16Z"/><path d="M745.56,1509.07l-16.31-5.82c6.06-4.34,10.84-5,15.78-2.92C748.87,1501.93,747.88,1504.85,745.56,1509.07Z"/><path d="M688.41,1884.8c-3.71-3-6.36-4.51-7.9-6.74a7.17,7.17,0,0,1-.41-6.07c0.59-1.29,3.47-2.57,4.87-2.19,1.84,0.51,4.31,2.48,4.58,4.14C690,1876.87,689,1880,688.41,1884.8Z"/><path d="M1297.32,747l-7.79-9c2.3-2,4.43-5.46,6.61-5.51,4.74-.09,5.07,4,4.54,7.89-0.31,2.27-.58,4.55-0.87,6.82Z"/><path d="M678,1438.21c-3.45,5.69-3.45,5.69-13.75,3.56,0.37-2.37.15-5.16,1.34-7.09,0.71-1.16,3.86-1.74,5.46-1.21C673.33,1434.24,675.23,1436.25,678,1438.21Z"/><path d="M755.73,1147.08l-15.14,10.15c-4.26-4.61-1.35-6.45,1.41-8.41C749.69,1143.36,750.43,1143.21,755.73,1147.08Z"/><path d="M770.13,1371.16l6.18-11.31,6.05,2.83C778.27,1374.64,777.77,1375,770.13,1371.16Z"/><path d="M752.39,1165.27l2.71,7.25-11.52,3.76C740.81,1169.17,740.81,1169.17,752.39,1165.27Z"/><path d="M1088.6,719.05c8.13,3.09,8.62,10.24,13.49,13.41l-0.95,1.87-8.76-1.25Z"/><path d="M700.26,1505.45c4.41-5,9-3.59,14.8-2.1l-2.26,8.28C706.75,1512.17,703.34,1509.63,700.26,1505.45Z"/><path d="M1185.93,866.32c-7.8-6.53-7.8-6.53-3.72-14.3,2.34,1.56,6,2.72,6.47,4.62C1189.24,859.15,1187.23,862.23,1185.93,866.32Z"/><path d="M1242.36,1438.52c9.56,3.54,9.8,4.87,2.78,12.46C1237.44,1447.43,1237.44,1447.43,1242.36,1438.52Z"/><path d="M1149.75,1017.57l-2.66,7.79-11.88-1.63a7,7,0,0,1-.4-2.26,22.59,22.59,0,0,1,.71-3.9h14.23Z"/><path d="M1206.4,710.68c-3.88,4.84.14,11.52-7.51,14.08l-2.63-14.08h10.14Z"/><path d="M1125.61,1019.06c-3.68,7.12-8.29,2.22-12.27,2.32-2-3.18-2-6.19,1.48-7.52,1.87-.72,4.7-0.11,6.63.83C1123.21,1015.56,1124.37,1017.69,1125.61,1019.06Z"/><path d="M1101.75,778.53c-8.34-.21-11.53-3.85-8.9-9.43,1.07-2.27,4.46-2.71,5.5-.46A96,96,0,0,1,1101.75,778.53Z"/><path d="M758.64,1635c-3.73,7.73-3.73,7.73-11.4,5.44l4.34-9.35Z"/><path d="M1042.93,990.87c1.49,3.71.79,6.14-2.71,6.11-3,0-6-1.16-9-1.8,0.85-1.44,1.51-3.91,2.59-4.11C1036.85,990.5,1040.06,990.87,1042.93,990.87Z"/><path d="M1261.85,1236.27c2-3.1,3.8-6.32,6-9.23,0.48-.62,2.73-0.6,3.57,0a4.33,4.33,0,0,1,1.22,3.4c-0.41,5.37-4.49,6.5-8.67,7.42Z"/><path d="M1170.67,894.38c4.64,0.19,9.31-2.12,10,4.21,0.17,1.44-1.56,4.32-2.72,4.49C1172.62,903.88,1171.56,899.89,1170.67,894.38Z"/><path d="M1196.72,283.64l14.17,4c-3.59,2.67-5.43,5.17-7.09,5.05C1199.9,292.42,1196.28,290.7,1196.72,283.64Z"/><path d="M1089.09,1102.4l-6.09-11.67,11.13,2.26-2.55,9.56Z"/><path d="M1194.59,758c0-4.17.28-8,5.67-6.91,1.38,0.29,3.45,3.56,3.08,4.84C1201.88,760.9,1198.37,759.82,1194.59,758Z"/><path d="M1206.65,1058.93l3.85-16.46,3.93,17.7Z"/><path d="M1171,906.62c3.55-.57,7.36-1.22,8,3.87,0.17,1.37-2.59,4.51-3.74,4.39C1170.86,914.4,1169.21,911.49,1171,906.62Z"/><path d="M1034.12,1015.1c3.06-.33,5.05-1,6.73-0.58a8.48,8.48,0,0,1,4.16,3.26c0.42,0.58-.41,3.06-1,3.21-1.78.42-4.12,0.74-5.51-.1C1036.83,1019.89,1035.93,1017.63,1034.12,1015.1Z"/><path d="M1205.26,690c-0.52,4.13-.55,7-1.37,9.59-0.32,1-2.54,2.22-3.61,2s-2.43-2.09-2.52-3.32C1197.48,694.4,1198.74,691.31,1205.26,690Z"/><path d="M1201.41,729.15c3.38,5.78,5.92,9.73.68,14.6C1196.45,739.22,1200.51,735.06,1201.41,729.15Z"/><path d="M1096.94,694.15c1.08-.72,2-1.8,2.57-1.64,2.57,0.73,5,1.8,7.55,2.75-0.8,1.25-1.36,3.3-2.43,3.61C1100.7,700,1097.94,698.57,1096.94,694.15Z"/><path d="M651.41,1497.69l-2.31,11.12c-2.37-1.32-4.81-1.87-5.14-3C642.93,1502.23,644,1501,651.41,1497.69Z"/><path d="M1107,654.12c-3.87,4.88-7.11,2.52-11.5.61C1100.21,648.39,1103.63,651.91,1107,654.12Z"/><path d="M1108,671.24l-9.18-2.75c0.36-5.41,3.62-4.69,6.31-3.79S1110.89,667,1108,671.24Z"/><path d="M1305.54,599.78l-3.79-8c2.23-.51,3.79-1.34,5.08-1,1.64,0.39,3.07,1.69,4.59,2.61Z"/><path d="M1165.15,1161.91c6.32,6.41,5.79,8.11-3.14,11.51Z"/><path d="M1262.68,366.23l-7,7.55c-0.33-4.52-1.28-7.55-.43-8.19,1.59-1.2,4.22-1,6.42-1.41Z"/><path d="M1255,403.13c-1,4-1.79,7-6.12,6.74C1248.19,403.25,1248.19,403.25,1255,403.13Z"/><path d="M1115.75,843.62l2.1,7-7.07.79,3.23-8.18Z"/><path d="M1111.13,1103.25c-1.92,1.39-3.26,3.06-4.12,2.84-1.54-.4-2.78-1.94-4.15-3,1.19-1.23,2.33-3.39,3.57-3.44S1109.09,1101.58,1111.13,1103.25Z"/><path d="M1103.77,831.24c-1,.91-1.33,1.34-1.51,1.29-2.59-.62-5.17-1.31-7.75-2,0.41-1.12.68-3.11,1.25-3.21C1099,826.83,1102,827.22,1103.77,831.24Z"/><path d="M1107,717.22c-5.81,2.75-8.45,1.14-11.1-2.89C1100.48,711.44,1103.08,713.57,1107,717.22Z"/><path d="M741,1481.68c1.56-3.92.56-8.9,6.92-10.81L743,1482.51Z"/><path d="M713.75,1434l4,7.29c-1.39.39-3,1.46-4.12,1.06C710.26,1441.1,708.92,1438.86,713.75,1434Z"/><path d="M905.24,1089l12.8-2.1C912.79,1091.37,912.74,1091.38,905.24,1089Z"/><path d="M1107.91,863.33h7.42c0,1.13.26,2,0,2.32C1112.85,868.21,1110.62,868.44,1107.91,863.33Z"/><path d="M670.69,1477.44c-2.17-4.14-2.79-8.06,2-11.94,1.9,4.94-1.69,8.27-2.13,12.07Z"/><path d="M724.15,1393.14l-4.63,8.37-2-1,4-8.55Z"/><path d="M1431.79,702.55c-2.11,5.7-4.56,4.24-6.63,2.68-0.54-.41-0.06-2.17-0.05-3.32Z"/><path d="M828.77,1712.17c1.14,2.61,2.31,4,2,4.9-0.54,1.6-2,2.9-3,4.32-0.93-.71-2.75-1.66-2.63-2.08C825.6,1717.63,826.66,1716.12,828.77,1712.17Z"/><path d="M1135.62,838.11l-2.32,6.28-2.55-1,2.5-6.21Z"/><path d="M648.49,1477.69l-7.27-2.8c4.45-3,6.09-.68,8,0.65Z"/><path d="M1119.32,730.08c-6.7-1-4.85-3.9-3.6-8.67Z"/><path d="M670.61,1477.57l5.86-2.64-1.87,8.58c-1.84-3-2.84-4.57-3.87-6.12A1.63,1.63,0,0,0,670.61,1477.57Z"/><path d="M1123.52,902.28l-0.93,6.53-2.21-.4,1.32-6.46Z"/><path d="M1120,743.55l-5.14-1.64,0.94-2.44,5,1.94Z"/><path d="M658,1432.52l4.9-5.83C663.26,1431.81,663.26,1431.81,658,1432.52Z"/><path d="M1177.23,1054.46c-2.19,1.21-3.3,2.3-4.06,2.1s-1.47-1.61-2.19-2.49c0.72-.55,1.46-1.55,2.16-1.53C1174.11,1052.57,1175.06,1053.38,1177.23,1054.46Z"/><path d="M666.16,1452.59l7.24,2.44c-1.4,1.12-2.33,2.24-2.69,2.08a53,53,0,0,1-5.3-3Z"/><path d="M674.38,2023l-6.31,2.36-0.4-.85,5.76-2.79Z"/><path d="M685.13,1441.56l-3,3.18a4.8,4.8,0,0,1-.9-1.37,38.59,38.59,0,0,1,2.69-2.95Z"/><path d="M696.17,1430.68l1.5-3.78,2.23,1.14-2.4,3.37Z"/><polygon class="cls-2" points="1014 0 0 1853.97 1308.35 2628 2328 776 1014 0"/></svg>