<svg id="Layer_0_Image" class="leaflet-zoom-hide" data-name="Layer 0&nbsp;Image" xmlns="http://www.w3.org/2000/svg" xmlns:xlink="http://www.w3.org/1999/xlink" viewBox="0 0 2328 2628"><defs><style>.cls-1{fill:#fff;}.cls-2{fill:none;}</style></defs><title>2000_Cooper_Robertson_G_cutout1</title><polygon fill="#cecece" points=" 549.36,1847.07 558.73,1832.07 579.45,1843.54 571.7800000000001,1858.25 585.95,1876.9 587.95,1888.71 575.11,1912.31 562.9,1915.2 530.9,1896.98 527.67,1891.46 525.4399999999999,1884.18 512.8199999999999,1869 509.5299999999999,1854.09 512.7199999999999,1847.8999999999999 527.9399999999999,1842.6699999999998 539.05,1843.6699999999998 549.36,1847.07"></polygon><polygon fill="#cecece" points=" 717.15,1586.31 720.97,1580 735.5500000000001,1581.52 752.2700000000001,1595.95 755.1300000000001,1597.82 743.6000000000001,1618.1899999999998 711.0500000000002,1597.33 692.0500000000002,1589.72 682.7800000000002,1595.6200000000001 672.6200000000002,1609.0200000000002 667.2600000000002,1611.5300000000002 669.0900000000003,1603.7800000000002 676.3700000000002,1584.4700000000003 683.0500000000002,1581.1000000000004 693.1400000000002,1585.8000000000004 705.5200000000002,1547.9100000000003 723.3200000000002,1554.4800000000002 717.15,1586.31"></polygon><polygon fill="#cecece" points=" 1345.58,762.58 1352.1799999999998,740.33 1437.82,766.33 1432.2,788.1 1345.58,762.58"></polygon><polygon fill="#cecece" points=" 838.27,1342.62 848.63,1337.05 864.56,1342.05 868.14,1346.46 874.09,1351.72 877.09,1371.13 867.2800000000001,1386.74 861.58,1381.8 839.38,1351.36 838.68,1342.31"></polygon><polygon fill="#cecece" points=" 1283.34,1270.72 1273.8799999999999,1263.72 1279,1254 1298,1264.25 1283.06,1329.91 1265.6599999999999,1325.13 1275.6599999999999,1296.6200000000001 1283.34,1270.72"></polygon><polygon fill="#cecece" points=" 536.63,1772.5 532.23,1781.64 512.77,1771.3000000000002 512.86,1777.5400000000002 511.12,1788.39 505.95,1799.98 501.28999999999996,1810.49 489.54999999999995,1792.26 494.22999999999996,1780.26 508.49999999999994,1770.4 498.10999999999996,1760.5400000000002 501.9,1752.3400000000001"></polygon><polygon fill="#cecece" points=" 1137.78,1044.93 1142.02,1030.79 1150.58,1030.79 1147.9199999999998,1057.79 1140.58,1058.96 1137.11,1068.1200000000001 1124.99,1067.3400000000001 1119.77,1052.2500000000002 1117.44,1059.3200000000002 1114.44,1061.2200000000003 1110.74,1058.5800000000002 1110.56,1056.65 1108.76,1029.95 1109.69,1025.95 1118.47,1040.51"></polygon><polygon fill="#cecece" points=" 834,1626.05 804.34,1608.62 802.09,1603.62 798.7,1592.1 804.37,1582.29 835.8,1600 840.9699999999999,1603 843.1999999999999,1609.78 834,1626.05"></polygon><polygon fill="#cecece" points=" 710.14,2012.83 722.04,2005.6699999999998 729.31,1996.4199999999998 734.67,1985.1299999999999 741.67,1974.4899999999998 750.67,1979.1399999999999 704.24,2027.5099999999998 696.36,2008.8599999999997 699.3000000000001,2002.6499999999996 705.6600000000001,2005.8199999999997 710.14,2012.83"></polygon><polygon fill="#cecece" points=" 885.06,1169.72 922.9799999999999,1151.88 935.31,1160.2600000000002 941.31,1192.2100000000003 922.13,1184.3700000000003 929.07,1187.2300000000002 930.22,1185.8500000000001 928.02,1167.14 920.17,1161.2800000000002 897.04,1172.64 901.12,1179.8200000000002 900.3,1181.5900000000001 893.3599999999999,1182.0100000000002 885.06,1169.72"></polygon><polygon fill="#cecece" points=" 545.25,2077.09 524.41,2024.5000000000002 539.51,2017.9900000000002 560.22,2069.1400000000003"></polygon><polygon fill="#cecece" points=" 1337,864.64 1331.09,879.21 1319.09,872.49 1302.32,869.5600000000001 1285.32,863.86 1282.04,846.5"></polygon><polygon fill="#cecece" points=" 773,1981.35 797.5,1936.35 809.33,1942.23 785.58,1988.09"></polygon><polygon fill="#cecece" points=" 525.93,1969.81 542.93,1995.34 537.8199999999999,2005.2099999999998 515.04,2014.09 513.87,2008.6499999999999 516.41,1994.1499999999999 525.93,1969.81"></polygon><polygon fill="#cecece" points=" 1089.22,1032.39 1057,1035.0600000000002 1054.66,1013.1700000000002 1086.89,1010.6100000000002"></polygon><polygon fill="#cecece" points=" 1177.4,1042 1170.7,1039 1172.21,1029.58 1190.21,1016.5799999999999 1193.1000000000001,1023.41 1208.5700000000002,1026.76 1213.3600000000001,1038.5 1190.3600000000001,1032.43 1183.8100000000002,1059.16"></polygon><polygon fill="#cecece" points=" 1294,246.15 1313.53,256.47 1302.91,258.47 1292.42,252.63000000000002 1278.89,295.55 1300.8000000000002,303.6 1283.7000000000003,303.86 1271.3900000000003,294.76 1275.7200000000003,284.51 1282.1700000000003,263.75 1294,246.15"></polygon><polygon fill="#cecece" points=" 1141.13,1243.55 1133.13,1284.6499999999999 1120.5,1282.6499999999999 1126.43,1247.58 1141.13,1243.55"></polygon><polygon fill="#cecece" points=" 1264.15,1411.31 1238.27,1395.21 1239.6299999999999,1384.21 1263.27,1378.94 1269.8,1384.77 1264.15,1411.31"></polygon><polygon fill="#cecece" points=" 1226.27,1275 1214.74,1263.07 1212.1200000000001,1246.85 1216.2900000000002,1232.98 1227.5400000000002,1244.83 1230.6800000000003,1261.83 1226.27,1275"></polygon><polygon fill="#cecece" points=" 650.09,1996.3 643.39,1998.57 641.26,1995.87 623.92,1956.87 625.4399999999999,1949.12 633.54,1952.25 647.0799999999999,1985.45 650.09,1996.3"></polygon><polygon fill="#cecece" points=" 1294.64,222.61 1294.64,221.81 1299.64,214.69 1301.72,222.18 1302.72,225.27 1322.63,231.27 1337.0900000000001,242.16000000000003 1331.0200000000002,255.16000000000003 1329.13,257.27000000000004 1320.41,249.87000000000003 1329.41,249.87000000000003 1332.41,240.43000000000004 1320.6200000000001,237.43000000000004 1311.16,235.12000000000003 1294.64,222.61"></polygon><polygon fill="#cecece" points=" 1339.75,776.1 1353,776.1 1343,801.99 1331.71,804.9300000000001 1325.71,793.34 1323.57,780.46 1331.3,789.2 1339.75,776.1"></polygon><polygon fill="#cecece" points=" 730.06,2078.78 710.39,2070.65 709.34,2066.51 704.34,2054.6400000000003 696.99,2063.9300000000003 693.44,2050.3100000000004 703.8,2046 725.06,2067.65 729.9599999999999,2078.77"></polygon><polygon fill="#cecece" points=" 1316.37,309.41 1314.04,290.41 1320.29,273.41 1324.79,272.63000000000005 1341.93,285.63000000000005 1341.93,292.49000000000007 1337.5800000000002,301.6700000000001 1336.0800000000002,279.19000000000005 1327.0800000000002,276.02000000000004 1319.3500000000001,299.24 1316.37,309.41"></polygon><polygon fill="#cecece" points=" 1169.06,341.63 1158.71,327.63 1166.1200000000001,295.93 1168.7500000000002,278.39 1172.1500000000003,274.53 1175.0200000000002,279.53 1167.1700000000003,321.39 1169.06,341.63"></polygon><polygon fill="#cecece" points=" 1240.07,1463.46 1228.33,1457.65 1221.04,1464.0300000000002 1209.7,1458.9400000000003 1208.79,1456.2800000000002 1210.71,1452.2800000000002 1224.3600000000001,1445.2800000000002 1239.0200000000002,1453.5900000000001 1240.07,1463.46"></polygon><polygon fill="#cecece" points=" 838.27,1342.62 838.65,1342.32 830.65,1337.3999999999999 861.15,1311.79 874.36,1330.57 872.5500000000001,1332.36 863.85,1324.87 843.5500000000001,1330.34"></polygon><polygon fill="#cecece" points=" 1409.07,972.66 1411.73,955.25 1420.63,949.54 1426.71,958.54 1423.21,976.39 1409.07,972.66"></polygon><polygon fill="#cecece" points=" 1208.23,351.16 1221.92,325.03000000000003 1226.92,306.94000000000005 1232.98,293.71000000000004 1235.29,293.71000000000004 1236.78,298.79 1221.29,344.71000000000004 1213.86,353.43000000000006 1208.23,351.16"></polygon><polygon fill="#cecece" points=" 720.55,1433.29 710.74,1427.22 713.74,1419.22 703.17,1412 711.36,1413.63 719.36,1417.5600000000002 727.78,1404.2500000000002 733.63,1400.5700000000002 734.32,1407.2900000000002 720.55,1433.29"></polygon><polygon fill="#cecece" points=" 1104.68,877.15 1097.14,879.5799999999999 1095.92,863.1399999999999 1094.3300000000002,848.5899999999999 1104.0100000000002,839.4399999999999 1107.4900000000002,855.64 1107.0900000000001,859.23 1104.68,877.15"></polygon><polygon fill="#cecece" points=" 1213.42,293.92 1216.73,298.47 1213.63,308.88000000000005 1202.92,338.57000000000005 1204.27,344.44000000000005 1203.55,350.11000000000007 1198.6699999999998,347.57000000000005 1197.11,335.2900000000001 1213.42,293.92"></polygon><polygon fill="#cecece" points=" 730,2078.75 736.81,2089.31 719.81,2107.52 714.05,2102.85 716.3499999999999,2090.77 730.1099999999999,2078.77 730,2078.75"></polygon><polygon fill="#cecece" points=" 1187.74,286.85 1189.35,292.51000000000005 1184.9499999999998,331.1 1176.2299999999998,343.3 1171.7199999999998,341.96000000000004 1181.3999999999999,312.16 1184.31,291.51000000000005 1187.74,286.85"></polygon><polygon fill="#cecece" points=" 1175,1118.74 1183.43,1121.3700000000001 1178.2,1142.0900000000001 1167.67,1139.7900000000002 1175,1118.74"></polygon><polygon fill="#cecece" points=" 771.13,1510.53 759.67,1496.99 776.8,1512.99 791.03,1524.33 772.9599999999999,1516.8 771.13,1510.53"></polygon><polygon fill="#cecece" points=" 816.72,1319.17 810.33,1308.8500000000001 821.2700000000001,1303.0300000000002 838.0300000000001,1299.7400000000002 816.72,1319.17"></polygon><polygon fill="#cecece" points=" 1109.78,911.2 1100.28,911.2 1097.95,886.8900000000001 1107.68,885.4600000000002"></polygon><polygon fill="#cecece" points=" 1101.81,764.26 1092.47,757.51 1092.52,739.3199999999999 1097.72,739.41 1102.99,751.16 1101.81,764.26"></polygon><polygon fill="#cecece" points=" 1184.92,1337.23 1196.92,1340.93 1191.5700000000002,1350.93 1187.91,1362.6000000000001 1181.3100000000002,1357.13 1184.92,1337.23"></polygon><polygon fill="#cecece" points=" 691.6,1444.72 696.48,1447.17 701.2,1468.72 698.5600000000001,1467.99 693.0400000000001,1463.2 701.0400000000001,1460.49 699.6400000000001,1457.76 691.6400000000001,1453.45 691.6,1444.72"></polygon><polygon fill="#cecece" points=" 1302.7,812.59 1295.93,811.1600000000001 1293.3,804.1600000000001 1297.08,792.7800000000001 1307.24,788.2200000000001"></polygon><polygon fill="#cecece" points=" 1097,813.88 1092.82,811.3 1092.82,798.65 1101.1599999999999,798.65 1102.34,822.04 1094.12,820.04 1097,813.88"></polygon><polygon fill="#cecece" points=" 688.18,1489.85 681.88,1486.55 681.27,1468.1399999999999 697.59,1473.34"></polygon><polygon fill="#cecece" points=" 726.1,2051.71 717.72,2043.66 737.12,2034.6000000000001 741.12,2036.44 740.4,2040.69 733.92,2043.69 726.1,2051.71"></polygon><polygon fill="#cecece" points=" 1182.05,847.28 1190.51,821.74 1191.1,829.6800000000001 1190.8999999999999,840.98 1182.05,847.28"></polygon><polygon fill="#cecece" points=" 667.44,2063.66 661,2068.5 657.63,2082.58 656.63,2071.25 648.5,2069.52 648.5,2067.17 666.62,2061"></polygon><polygon fill="#cecece" points=" 1285.3,543.63 1295.03,527.68 1296.71,542.2299999999999 1285.3,543.63"></polygon><polygon fill="#cecece" points=" 1411.79,722.72 1407.79,726.87 1400.4099999999999,723.34 1402.4699999999998,708.4100000000001 1411.79,722.72"></polygon><polygon fill="#cecece" points=" 753.38,1475.39 756.65,1483.25 763.02,1481.08 759.41,1493.08 747.14,1483.84 750.72,1475.74"></polygon><polygon fill="#cecece" points=" 1185.55,544.18 1180.49,541.18 1183.22,523.18 1190.08,529.41 1185.55,544.18"></polygon><polygon fill="#cecece" points=" 1199.54,527.06 1207.03,529.13 1203.26,544.32 1198.8,547.32 1196.45,542.69 1199.54,527.06"></polygon><polygon fill="#cecece" points=" 1305,642.91 1298.6,627.91 1307.08,628.73"></polygon><polygon fill="#cecece" points=" 799.58,1658.2 811.58,1665.1200000000001 799.58,1673.7800000000002 799.58,1658.2"></polygon><polygon fill="#cecece" points=" 1164.59,537.92 1173.74,519.0699999999999 1170.36,536.4899999999999 1164.59,537.92"></polygon><polygon fill="#cecece" points=" 1206.59,1463.5 1229.59,1479.99 1212.8,1472.1 1206.7,1467.2199999999998 1206.59,1463.5"></polygon><polygon fill="#cecece" points=" 1159.1,515.93 1154.33,531.39 1150.4199999999998,533.08 1148.1299999999999,529.5200000000001 1150.84,517.0300000000001 1159.1,515.93"></polygon><polygon fill="#cecece" points=" 640.89,1486.93 643.49,1493.3700000000001 636.95,1502.6100000000001 632.44,1497.39 640.89,1486.93"></polygon><polygon fill="#cecece" points=" 776.12,1463.73 766.89,1476 760.6,1468.36 776.12,1463.73"></polygon><polygon fill="#cecece" points=" 1255.92,1432.59 1246.3700000000001,1421.09 1258.48,1423.9399999999998 1255.92,1432.59"></polygon><polygon fill="#cecece" points=" 1222.73,1043.13 1226.93,1027.96 1234.1200000000001,1039.8400000000001 1222.73,1043.13"></polygon><polygon fill="#cecece" points=" 1192.61,1362.57 1200.84,1347.1799999999998 1207.12,1349.6699999999998 1198.6999999999998,1365.3899999999999"></polygon><polygon fill="#cecece" points=" 1136.12,529.6 1132.4799999999998,525.6 1135.3999999999999,512.3000000000001 1139.2099999999998,510.30000000000007 1141.7399999999998,513.6400000000001 1136.12,529.6"></polygon><polygon fill="#cecece" points=" 818.76,1744.16 812.64,1740.77 820.64,1726.15 825.04,1728.7900000000002 818.76,1744.16"></polygon><polygon fill="#cecece" points=" 745.56,1509.07 729.25,1503.25 745.03,1500.33 745.56,1509.07"></polygon><polygon fill="#cecece" points=" 688.41,1884.8 680.51,1878.06 680.1,1871.99 684.97,1869.8 689.5500000000001,1873.94 688.41,1884.8"></polygon><polygon fill="#cecece" points=" 1297.32,747 1289.53,738 1296.1399999999999,732.49 1300.6799999999998,740.38 1299.81,747.2"></polygon><polygon fill="#cecece" points=" 678,1438.21 664.25,1441.77 665.59,1434.68 671.0500000000001,1433.47 678,1438.21"></polygon><polygon fill="#cecece" points=" 755.73,1147.08 740.59,1157.23 742,1148.82 755.73,1147.08"></polygon><polygon fill="#cecece" points=" 770.13,1371.16 776.31,1359.8500000000001 782.3599999999999,1362.68 770.13,1371.16"></polygon><polygon fill="#cecece" points=" 752.39,1165.27 755.1,1172.52 743.58,1176.28 752.39,1165.27"></polygon><polygon fill="#cecece" points=" 1088.6,719.05 1102.09,732.4599999999999 1101.1399999999999,734.3299999999999 1092.3799999999999,733.0799999999999"></polygon><polygon fill="#cecece" points=" 700.26,1505.45 715.06,1503.3500000000001 712.8,1511.63 700.26,1505.45"></polygon><polygon fill="#cecece" points=" 1185.93,866.32 1182.21,852.0200000000001 1188.68,856.6400000000001 1185.93,866.32"></polygon><polygon fill="#cecece" points=" 1242.36,1438.52 1245.1399999999999,1450.98 1242.36,1438.52"></polygon><polygon fill="#cecece" points=" 1149.75,1017.57 1147.09,1025.3600000000001 1135.2099999999998,1023.7300000000001 1134.8099999999997,1021.4700000000001 1135.5199999999998,1017.5700000000002 1149.7499999999998,1017.5700000000002"></polygon><polygon fill="#cecece" points=" 1206.4,710.68 1198.89,724.76 1196.26,710.68 1206.4,710.68"></polygon><polygon fill="#cecece" points=" 1125.61,1019.06 1113.34,1021.38 1114.82,1013.86 1121.45,1014.69 1125.61,1019.06"></polygon><polygon fill="#cecece" points=" 1101.75,778.53 1092.85,769.1 1098.35,768.64 1101.75,778.53"></polygon><polygon fill="#cecece" points=" 758.64,1635 747.24,1640.44 751.58,1631.0900000000001"></polygon><polygon fill="#cecece" points=" 1042.93,990.87 1040.22,996.98 1031.22,995.1800000000001 1033.81,991.07 1042.93,990.87"></polygon><polygon fill="#cecece" points=" 1261.85,1236.27 1267.85,1227.04 1271.4199999999998,1227.04 1272.6399999999999,1230.44 1263.9699999999998,1237.8600000000001"></polygon><polygon fill="#cecece" points=" 1170.67,894.38 1180.67,898.59 1177.95,903.08 1170.67,894.38"></polygon><polygon fill="#cecece" points=" 1196.72,283.64 1210.89,287.64 1203.8000000000002,292.69 1196.72,283.64"></polygon><polygon fill="#cecece" points=" 1089.09,1102.4 1083,1090.73 1094.13,1092.99 1091.5800000000002,1102.55"></polygon><polygon fill="#cecece" points=" 1194.59,758 1200.26,751.09 1203.34,755.9300000000001 1194.59,758"></polygon><polygon fill="#cecece" points=" 1206.65,1058.93 1210.5,1042.47 1214.43,1060.17"></polygon><polygon fill="#cecece" points=" 1171,906.62 1179,910.49 1175.26,914.88 1171,906.62"></polygon><polygon fill="#cecece" points=" 1034.12,1015.1 1040.85,1014.52 1045.01,1017.78 1044.01,1020.99 1038.5,1020.89 1034.12,1015.1"></polygon><polygon fill="#cecece" points=" 1205.26,690 1203.89,699.59 1200.2800000000002,701.59 1197.7600000000002,698.27 1205.26,690"></polygon><polygon fill="#cecece" points=" 1201.41,729.15 1202.0900000000001,743.75 1201.41,729.15"></polygon><polygon fill="#cecece" points=" 1096.94,694.15 1099.51,692.51 1107.06,695.26 1104.6299999999999,698.87 1096.94,694.15"></polygon><polygon fill="#cecece" points=" 651.41,1497.69 649.1,1508.81 643.96,1505.81 651.41,1497.69"></polygon><polygon fill="#cecece" points=" 1107,654.12 1095.5,654.73 1107,654.12"></polygon><polygon fill="#cecece" points=" 1108,671.24 1098.82,668.49 1105.1299999999999,664.7 1108,671.24"></polygon><polygon fill="#cecece" points=" 1305.54,599.78 1301.75,591.78 1306.83,590.78 1311.4199999999998,593.39"></polygon><polygon fill="#cecece" points=" 1165.15,1161.91 1162.01,1173.42"></polygon><polygon fill="#cecece" points=" 1262.68,366.23 1255.68,373.78000000000003 1255.25,365.59000000000003 1261.67,364.18"></polygon><polygon fill="#cecece" points=" 1255,403.13 1248.88,409.87 1255,403.13"></polygon><polygon fill="#cecece" points=" 1115.75,843.62 1117.85,850.62 1110.78,851.41 1114.01,843.23"></polygon><polygon fill="#cecece" points=" 1111.13,1103.25 1107.0100000000002,1106.09 1102.8600000000001,1103.09 1106.43,1099.6499999999999 1111.13,1103.25"></polygon><polygon fill="#cecece" points=" 1103.77,831.24 1102.26,832.53 1094.51,830.53 1095.76,827.3199999999999 1103.77,831.24"></polygon><polygon fill="#cecece" points=" 1107,717.22 1095.9,714.33 1107,717.22"></polygon><polygon fill="#cecece" points=" 741,1481.68 747.92,1470.8700000000001 743,1482.51"></polygon><polygon fill="#cecece" points=" 713.75,1434 717.75,1441.29 713.63,1442.35 713.75,1434"></polygon><polygon fill="#cecece" points=" 905.24,1089 918.04,1086.9 905.24,1089"></polygon><polygon fill="#cecece" points=" 1107.91,863.33 1115.3300000000002,863.33 1115.3300000000002,865.6500000000001 1107.91,863.33"></polygon><polygon fill="#cecece" points=" 670.69,1477.44 672.69,1465.5 670.5600000000001,1477.57"></polygon><polygon fill="#cecece" points=" 724.15,1393.14 719.52,1401.51 717.52,1400.51 721.52,1391.96"></polygon><polygon fill="#cecece" points=" 1431.79,702.55 1425.1599999999999,705.2299999999999 1425.11,701.9099999999999"></polygon><polygon fill="#cecece" points=" 828.77,1712.17 830.77,1717.0700000000002 827.77,1721.39 825.14,1719.3100000000002 828.77,1712.17"></polygon><polygon fill="#cecece" points=" 1135.62,838.11 1133.3,844.39 1130.75,843.39 1133.25,837.18"></polygon><polygon fill="#cecece" points=" 648.49,1477.69 641.22,1474.89 649.22,1475.5400000000002"></polygon><polygon fill="#cecece" points=" 1119.32,730.08 1115.72,721.4100000000001"></polygon><polygon fill="#cecece" points=" 670.61,1477.57 676.47,1474.9299999999998 674.6,1483.5099999999998 670.73,1477.3899999999999 670.61,1477.57"></polygon><polygon fill="#cecece" points=" 1123.52,902.28 1122.59,908.81 1120.3799999999999,908.41 1121.6999999999998,901.9499999999999"></polygon><polygon fill="#cecece" points=" 1120,743.55 1114.86,741.91 1115.8,739.4699999999999 1120.8,741.41"></polygon><polygon fill="#cecece" points=" 658,1432.52 662.9,1426.69 658,1432.52"></polygon><polygon fill="#cecece" points=" 1177.23,1054.46 1173.17,1056.56 1170.98,1054.07 1173.14,1052.54 1177.23,1054.46"></polygon><polygon fill="#cecece" points=" 666.16,1452.59 673.4,1455.03 670.7099999999999,1457.11 665.41,1454.11"></polygon><polygon fill="#cecece" points=" 674.38,2023 668.07,2025.36 667.6700000000001,2024.51 673.4300000000001,2021.72"></polygon><polygon fill="#cecece" points=" 685.13,1441.56 682.13,1444.74 681.23,1443.3700000000001 683.9200000000001,1440.42"></polygon><polygon fill="#cecece" points=" 696.17,1430.68 697.67,1426.9 699.9,1428.0400000000002 697.5,1431.41"></polygon><polygon class="cls-2" points="1014 0 0 1853.97 1308.35 2628 2328 776 1014 0"></polygon></svg>
