<svg version="1.1" xmlns="http://www.w3.org/2000/svg" xmlns:xlink="http://www.w3.org/1999/xlink" x="0px" y="0px" viewBox="0 0 2399 2631" style="enable-background:new 0 0 2399 2631;" xml:space="preserve">
<style type="text/css">
    .st0{display:none;}
    .st1{display:inline;fill:none;stroke:#14A3E8;stroke-width:2;stroke-miterlimit:10;}
    .st2{display:inline;}
    .st3{fill:#00B65C;}
    .st4{fill:#00C3F3;}
    .st5{display:inline;fill:#7B1517;}
    .st6{display:inline;fill:#EC8A43;}
    .st7{display:inline;fill:#E5E161;}
    .st8{display:inline;fill:#9657A0;}
</style>
<g id="_x31_894_x5F_Cooper_x5F_Robertson_x5F_FrameworkPlanGeo1_xA0_Image_1_" class="st0">
    
        <image style="display:inline;overflow:visible;" width="2399" height="2631" id="_x31_894_x5F_Cooper_x5F_Robertson_x5F_FrameworkPlanGeo1_xA0_Image" xlink:href="43395D5D8D9515D6.jpg">
    </image>
</g>
<g id="Layer_2" class="st0">
    <polygon class="st1" points="1035.8,0.7 2401.9,756.8 1363.8,2632 -0.3,1876.9     "></polygon>
</g>
<g id="_x31_753" class="st0">
    <g class="st2">
        <g>
            <polygon fill="#cecece" points=" 917.4,1701.9 905.3,1724.7 915,1729.9 927.1,1707.1000000000001 917.4,1701.9"></polygon>
        </g>
    </g>
</g>
<g id="_x31_835">
    <polygon fill="#cecece" points=" 957.1,1594.9 950.2,1591.3000000000002 949.9000000000001,1590.3000000000002 958.9000000000001,1573.3000000000002 959.9000000000001,1573.0000000000002 966.8000000000001,1576.6000000000001 967.1,1577.6000000000001 958.1,1594.6000000000001 957.1,1594.9"></polygon>
    <polygon fill="#cecece" points=" 941.8,1625.3 951.0999999999999,1607.8 950.9999999999999,1607.3999999999999 943.5999999999999,1603.4999999999998 943.1999999999999,1603.5999999999997 933.9,1621.0999999999997 934,1621.4999999999998 941.4,1625.3999999999999 941.8,1625.3"></polygon>
    <polygon fill="#cecece" points=" 925.3,1656.3 934.5,1639 934.3,1638.3 927.5,1634.7 926.8,1634.9 917.5999999999999,1652.2 917.8,1652.9 924.5999999999999,1656.5 925.3,1656.3"></polygon>
    <polygon fill="#cecece" points=" 893.1,1717.4 901.9,1700.8000000000002 901.6,1699.7000000000003 895.3000000000001,1696.3000000000002 894.2,1696.6000000000001 885.4000000000001,1713.2 885.7,1714.3 892,1717.7 893.1,1717.4"></polygon>
    <polygon fill="#cecece" points=" 970.6,1603.8 966.6,1610.7 966.8000000000001,1611.4 973.8000000000001,1615.4 974.5000000000001,1615.2 978.5000000000001,1608.3 978.3000000000001,1607.6 971.3000000000001,1603.6 970.6,1603.8"></polygon>
    <polygon fill="#cecece" points=" 907,1609.5 902.2,1618.5 902.4000000000001,1619.1 911.1000000000001,1623.6999999999998 911.7000000000002,1623.4999999999998 916.5000000000001,1614.4999999999998 916.3000000000001,1613.8999999999999 907.6,1609.3 907,1609.5"></polygon>
    <polygon fill="#cecece" points=" 941.4,1632.1 939.6,1635.6 937.4,1634.3999999999999 936.4,1636.1999999999998 922.3,1628.6999999999998 926.1999999999999,1621.3999999999999 940.3,1628.8999999999999 939.1999999999999,1630.8999999999999 941.4,1632.1"></polygon>
    <polygon fill="#cecece" points=" 923.3,1666.4 921.1999999999999,1665.3000000000002 919.9,1667.8000000000002 905.8,1660.3000000000002 910.1999999999999,1652.0000000000002 924.3,1659.5000000000002 923,1661.9000000000003 925.1,1663.0000000000002 923.3,1666.4"></polygon>
    <polygon fill="#cecece" points=" 909.4,1694 907.6,1697.5 905.2,1696.2 904.1,1698.2 889.6,1690.5 893.9,1682.3 908.4,1690 907,1692.7 909.4,1694"></polygon>
    <polygon fill="#cecece" points=" 891.7,1639 885.4000000000001,1650.8 885.4000000000001,1650.8999999999999 894.7,1655.8 894.8000000000001,1655.8 901.1,1644 901.1,1643.9 891.7,1639 891.7,1639"></polygon>
</g>
<g id="_x31_850" class="st0">
    
        <rect x="886.6" y="1665.4" transform="matrix(0.8829 0.4695 -0.4695 0.8829 889.5689 -223.2779)" class="st5" width="11.9" height="13.8"></rect>
    <polygon class="st5" points="927.3,1564.2 929.6,1559.8 926.9,1558.4 928.7,1555.1 914.8,1547.6 904.8,1566.6 918.7,1574 
        920.3,1571.1 922.9,1572.5 925.2,1568.1 922.6,1566.7 924.6,1562.8     "></polygon>
</g>
<g id="_x31_894" class="st0">
    <polygon class="st6" points="990.5,1483 990.5,1483 957.7,1465.5 957.7,1465.5 957.4,1465.4 924,1528.2 931.1,1531.9 960.8,1475.9 
        980,1486.2 950.3,1542 957.4,1545.8 990.7,1483.1     "></polygon>
    
        <rect x="877" y="1494.5" transform="matrix(0.8829 0.4695 -0.4695 0.8829 808.6715 -242.1669)" class="st6" width="26" height="12.3"></rect>
    
        <rect x="1104.9" y="1408" transform="matrix(0.8829 0.4695 -0.4695 0.8829 794.568 -359.5019)" class="st6" width="26.7" height="11.3"></rect>
    <polygon class="st6" points="1134.5,1332.8 1107.5,1329.7 1106.1,1342.7 1106.2,1342.7 1104.8,1355.2 1119.7,1356.8 1121.1,1344.4 
        1133,1345.7     "></polygon>
    
        <rect x="1100.8" y="1362.2" transform="matrix(0.9734 0.2293 -0.2293 0.9734 344.4614 -217.5356)" class="st6" width="15" height="22.4"></rect>
    <polygon class="st6" points="1152.8,1376.7 1153.7,1373.3 1140.7,1370.2 1140,1373.1 1140,1373 1139.7,1373.9 1129.4,1371.6 
        1126.7,1383.7 1136.3,1385.9 1134.5,1392.3 1148.7,1396.4 1154.2,1377.1     "></polygon>
    
        <rect x="839.2" y="1574.7" transform="matrix(0.8829 0.4695 -0.4695 0.8829 841.4636 -210.7896)" class="st6" width="8.5" height="14.8"></rect>
    
        <rect x="822.5" y="1596.8" transform="matrix(0.8829 0.4695 -0.4695 0.8829 849.843 -200.3497)" class="st6" width="8.4" height="14.6"></rect>
    <polygon class="st6" points="863.8,1615.5 863.8,1615.4 844.8,1605.3 840.9,1612.7 853.3,1619.2 845.2,1634.4 852,1638.1 
        864,1615.6     "></polygon>
    <polygon class="st6" points="907.8,1535.4 895.3,1528.7 895.3,1528.7 889.2,1525.5 884.4,1534.4 890.5,1537.6 891.7,1535.4 
        897,1538.3 887.8,1555.5 895,1559.4 904.2,1542.1 904.2,1542.1     "></polygon>
    
        <rect x="940.3" y="1528.3" transform="matrix(0.8829 0.4695 -0.4695 0.8829 829.4289 -263.7033)" class="st6" width="6.5" height="6.4"></rect>
    <polygon class="st6" points="1024.1,1534.2 1017.9,1530.8 1000.9,1561.5 996.4,1559 998.3,1555.4 987.4,1549.3 985.4,1552.9 
        980.9,1550.4 997.9,1519.7 991.8,1516.3 971.4,1553.1 971.4,1553.1 971.3,1553.2 1003.7,1571.1 1007.1,1564.9 1007.1,1564.9     "></polygon>
</g>
<g id="_x31_912" class="st0">
    
        <rect x="650.6" y="2107" transform="matrix(0.326 0.9454 -0.9454 0.326 2445.9136 801.8397)" class="st7" width="20" height="18.3"></rect>
    <polygon class="st7" points="1080.2,1133.2 1081,1149.2 1034.1,1151.3 1028.8,1141.1 1033.8,1141.1 1032,1135     "></polygon>
</g>
<g id="_x31_940" class="st0">
    
        <rect x="1176.7" y="1036.8" transform="matrix(-0.9768 -0.2143 0.2143 -0.9768 2120.9873 2317.0598)" class="st8" width="18.8" height="13.5"></rect>
    <polygon class="st8" points="845.7,1673.1 837.6,1669 839,1666.2 821.8,1657.5 819.9,1661.2 808.6,1655.5 801.1,1670.1 
        829.3,1684.4 835,1673.4 843.3,1677.6     "></polygon>
</g>
</svg>