<svg id="d45731f6-1ac3-4195-a7ad-417b4108c4f1" data-name="1894" xmlns="http://www.w3.org/2000/svg" viewBox="0 0 334.64355 308.30682">
  <defs>
    <style>
      .\34 264b5b5-fd73-4716-8e55-937ab1190b9e {
        fill: #ec8a43;
      }
    </style>
  </defs>
  <title>1894_disappeared-NEW</title>
  <polygon class="4264b5b5-fd73-4716-8e55-937ab1190b9e" points="170.938 153.23 170.941 153.225 138.157 135.793 138.157 135.793 137.863 135.637 104.48 198.42 111.544 202.176 141.309 146.196 160.506 156.403 130.788 212.294 137.852 216.05 171.184 153.361 170.938 153.23"></polygon>
  <polygon fill="#cecece" points=" 881.69727,1489.25452 881.20856,1489.4038699999999 875.60456,1499.9435399999998 898.57276,1512.1559399999996 904.34644,1501.2972399999996"></polygon>
  <polygon fill="#cecece" points=" 1109.40875,1402.59052 1108.89221,1402.7485199999999 1103.77331,1412.3757799999998 1127.38153,1424.92851 1132.67975,1414.96397"></polygon>
  <polygon class="4264b5b5-fd73-4716-8e55-937ab1190b9e" points="288.005 0 286.547 12.953 286.648 12.965 285.247 25.403 300.203 27.087 301.603 14.649 313.456 15.983 314.914 3.03 288.005 0"></polygon>
  <polygon fill="#cecece" points=" 1103.8609,1360.86285 1103.46399,1361.10846 1098.40199,1382.5954 1112.98133,1386.03003 1118.11897,1364.2218599999999"></polygon>
  <polygon class="4264b5b5-fd73-4716-8e55-937ab1190b9e" points="333.311 46.948 334.118 43.524 321.137 40.466 320.469 43.304 320.445 43.297 320.198 44.17 309.881 41.843 307.149 53.956 316.803 56.134 314.975 62.576 329.173 66.605 334.644 47.327 333.311 46.948"></polygon>
  <polygon fill="#cecece" points=" 843.36328,1573.649 843.0690900000001,1573.7389099999998 836.2270900000001,1586.6068299999997 843.7242800000001,1590.5931599999997 850.6683700000001,1577.5331599999997"></polygon>
  <polygon fill="#cecece" points=" 826.68127,1595.79663 826.2605500000001,1595.92523 819.53655,1608.57129 826.9959600000001,1612.53754 833.86602,1599.61682"></polygon>
  <polygon class="4264b5b5-fd73-4716-8e55-937ab1190b9e" points="44.288 285.72 44.311 285.677 25.26 275.548 21.347 282.905 33.715 289.481 25.645 304.66 32.504 308.307 44.464 285.814 44.288 285.72"></polygon>
  <polygon class="4264b5b5-fd73-4716-8e55-937ab1190b9e" points="75.722 198.943 75.727 198.933 69.668 195.711 64.908 204.663 70.967 207.885 72.142 205.675 77.495 208.522 68.311 225.794 75.501 229.617 84.685 212.344 84.706 212.356 88.285 205.624 75.722 198.943"></polygon>
  <polygon fill="#cecece" points=" 942.41064,1527.26923 942.0645099999999,1527.375 939.1938399999999,1532.774 944.9017299999999,1535.80891 947.8925099999999,1530.18397"></polygon>
  <polygon class="4264b5b5-fd73-4716-8e55-937ab1190b9e" points="204.531 204.477 198.349 201.05 181.349 231.719 176.83 229.215 178.8 225.661 167.846 219.59 165.877 223.143 161.397 220.661 178.406 189.977 172.224 186.55 151.842 223.321 151.842 223.321 151.789 223.417 184.132 241.343 187.559 235.161 187.531 235.145 204.531 204.477"></polygon>
</svg>
