<svg version="1.1" xmlns="http://www.w3.org/2000/svg" xmlns:xlink="http://www.w3.org/1999/xlink" x="0px" y="0px" viewBox="0 0 2399 2631" enable-background="new 0 0 2399 2631" xml:space="preserve">
<g id="_x31_894_x5F_Cooper_x5F_Robertson_x5F_FrameworkPlanGeo1_xA0_Image_1_" display="none">
  
    <image display="inline" overflow="visible" width="2399" height="2631" id="_x31_894_x5F_Cooper_x5F_Robertson_x5F_FrameworkPlanGeo1_xA0_Image" xlink:href="655C58470F434E13.jpg">
  </image>
</g>
<g id="Layer_2" display="none">
  <polygon display="inline" fill="none" stroke="#14A3E8" stroke-width="2" stroke-miterlimit="10" points="1035.8,0.7 2401.9,756.8 
    1363.8,2632 -0.3,1876.9   "></polygon>
</g>
<g id="_x31_753" display="none">
  <g display="inline">
    <g>
      <polygon fill="#cecece" points=" 917.4,1701.9 905.3,1724.7 915,1729.9 927.1,1707.1000000000001 917.4,1701.9"></polygon>
    </g>
  </g>
</g>
<g id="_x31_835" display="none">
  
    <rect x="953.9" y="1573.6" transform="matrix(0.8829 0.4695 -0.4695 0.8829 855.8177 -264.5781)" display="inline" fill="#00C3F3" width="9.2" height="20.6"></rect>
  
    <rect x="938" y="1604.3" transform="matrix(0.8829 0.4695 -0.4695 0.8829 868.2579 -253.4733)" display="inline" fill="#00C3F3" width="9" height="20.4"></rect>
  
    <rect x="921.7" y="1635.4" transform="matrix(0.8829 0.4695 -0.4695 0.8829 880.9843 -242.1285)" display="inline" fill="#00C3F3" width="8.7" height="20.6"></rect>
  
    <rect x="889.3" y="1696.9" transform="matrix(0.8829 0.4695 -0.4695 0.8829 906.029 -219.738)" display="inline" fill="#00C3F3" width="8.7" height="20.4"></rect>
  
    <rect x="968" y="1605.1" transform="matrix(-0.866 -0.5 0.5 -0.866 1010.0044 3489.6726)" display="inline" fill="#00C3F3" width="9" height="8.9"></rect>
  
    <rect x="921.9" y="1662.1" transform="matrix(-0.8829 -0.4695 0.4695 -0.8829 957.05 3566.7712)" display="inline" fill="#00C3F3" width="2.5" height="3.9"></rect>
  
    <rect x="904" y="1611" transform="matrix(-0.8829 -0.4695 0.4695 -0.8829 953.2629 3470.7651)" display="inline" fill="#00C3F3" width="10.6" height="11.1"></rect>
  <polygon display="inline" fill="#00C3F3" points="941.4,1632.1 939.3,1631 940.4,1628.9 926.3,1621.4 922.4,1628.8 936.5,1636.3 
    937.4,1634.4 939.6,1635.6   "></polygon>
  
    <rect x="907.2" y="1655.1" transform="matrix(-0.8829 -0.4695 0.4695 -0.8829 943.9005 3554.9971)" display="inline" fill="#00C3F3" width="16" height="9.5"></rect>
  <polygon display="inline" fill="#00C3F3" points="909.4,1694 907.1,1692.7 908.5,1690.1 894,1682.3 889.6,1690.5 904.2,1698.2 
    905.2,1696.2 907.6,1697.5   "></polygon>
  
    <rect x="887.9" y="1640.6" transform="matrix(-0.8829 -0.4695 0.4695 -0.8829 908.5665 3521.2207)" display="inline" fill="#00C3F3" width="10.6" height="13.4"></rect>
</g>
<g id="_x31_850" display="none">
  
    <rect x="886.6" y="1665.4" transform="matrix(0.8829 0.4695 -0.4695 0.8829 889.5689 -223.2779)" display="inline" fill="#7B1517" width="11.9" height="13.8"></rect>
  <polygon display="inline" fill="#7B1517" points="927.3,1564.2 929.6,1559.8 926.9,1558.4 928.7,1555.1 914.8,1547.6 904.8,1566.6 
    918.7,1574 920.3,1571.1 922.9,1572.5 925.2,1568.1 922.6,1566.7 924.6,1562.8   "></polygon>
</g>
<g id="_x31_894">
  <polygon fill="#cecece" points=" 990.7,1483.1 957.4000000000001,1545.8 950.3000000000001,1542 980.0000000000001,1486.1 960.8000000000001,1475.8999999999999 931.0000000000001,1531.8999999999999 923.9000000000001,1528.1 957.3000000000001,1465.3 957.6,1465.5 957.6,1465.5 990.4,1482.9 990.4,1482.9 990.7,1483.1"></polygon>
  <polygon fill="#cecece" points=" 898.3,1512 876,1500.1 875.9,1499.6 881.3,1489.3999999999999 881.8,1489.3 904.0999999999999,1501.2 904.1999999999999,1501.7 898.8,1511.9 898.3,1512"></polygon>
  <polygon fill="#cecece" points=" 1127.3,1424.9 1103.8,1412.4 1103.8,1412.3000000000002 1109.1,1402.4 1109.1999999999998,1402.4 1132.6999999999998,1414.9 1132.6999999999998,1415 1127.3,1424.9 1127.3,1424.9"></polygon>
  <polygon fill="#cecece" points=" 1133,1345.7 1121.1,1344.4 1119.6999999999998,1356.8000000000002 1104.6999999999998,1355.1000000000001 1106.1,1342.7 1106,1342.7 1107.5,1329.7 1134.4,1332.7 1133,1345.7"></polygon>
  <polygon fill="#cecece" points=" 1112.9,1386 1098.6000000000001,1382.6 1098.5000000000002,1382.3999999999999 1103.6000000000001,1360.8 1103.8000000000002,1360.7 1118.1000000000001,1364.1000000000001 1118.2,1364.3000000000002 1113.1000000000001,1385.9 1112.9,1386"></polygon>
  <polygon fill="#cecece" points=" 1154.2,1377.1 1148.7,1396.3999999999999 1134.5,1392.3999999999999 1136.3,1385.9999999999998 1126.6,1383.7999999999997 1129.3,1371.6999999999998 1139.6,1373.9999999999998 1139.8,1373.0999999999997 1139.8,1373.0999999999997 1140.5,1370.2999999999997 1153.5,1373.3999999999996 1152.7,1376.7999999999997 1154.2,1377.1"></polygon>
  <polygon fill="#cecece" points=" 843.5,1590.5 836.4,1586.7 836.3,1586.4 843,1573.8000000000002 843.3,1573.7000000000003 850.4,1577.5000000000002 850.5,1577.8000000000002 843.8,1590.4 843.5,1590.5"></polygon>
  <polygon fill="#cecece" points=" 826.7,1612.4 819.8000000000001,1608.8000000000002 819.7,1608.3000000000002 826.2,1596.0000000000002 826.7,1595.9000000000003 833.6,1599.5000000000002 833.7,1600.0000000000002 827.2,1612.3000000000002 826.7,1612.4"></polygon>
  <polygon fill="#cecece" points=" 864,1615.6 852,1638.1 845.1,1634.5 853.2,1619.3 840.8000000000001,1612.7 844.7,1605.3 863.8000000000001,1615.3999999999999 863.8000000000001,1615.3999999999999 864,1615.6"></polygon>
  <polygon fill="#cecece" points=" 904.2,1542.1 904.2,1542.1 895,1559.3999999999999 887.8,1555.6 897,1538.3 891.6,1535.5 890.4,1537.7 884.3,1534.5 889.0999999999999,1525.5 895.1999999999999,1528.7 895.1999999999999,1528.7 907.8,1535.4 904.2,1542.1"></polygon>
  <polygon fill="#cecece" points=" 944.8,1535.7 939.4,1532.8 939.3,1532.6 942.0999999999999,1527.1999999999998 942.3,1527.1 947.6999999999999,1530 947.8,1530.2 945,1535.6000000000001 944.8,1535.7"></polygon>
  <polygon fill="#cecece" points=" 1007.1,1564.9 1007.1,1564.9 1003.7,1571.1000000000001 971.4000000000001,1553.2 971.5000000000001,1553.1000000000001 971.5000000000001,1553.1000000000001 991.9000000000001,1516.3000000000002 998.1000000000001,1519.7000000000003 981.1000000000001,1550.4000000000003 985.6000000000001,1552.9000000000003 987.6000000000001,1549.3000000000004 998.6000000000001,1555.4000000000003 996.6000000000001,1559.0000000000002 1001.1000000000001,1561.5000000000002 1018.1000000000001,1530.8000000000002 1024.3000000000002,1534.2000000000003 1007.1,1564.9"></polygon>
</g>
<g id="_x31_912" display="none">
  
    <rect x="650.6" y="2107" transform="matrix(0.326 0.9454 -0.9454 0.326 2445.9136 801.8397)" display="inline" fill="#E5E161" width="20" height="18.3"></rect>
  <polygon display="inline" fill="#E5E161" points="1080.2,1133.2 1081,1149.2 1034.1,1151.3 1028.8,1141.1 1033.8,1141.1 1032,1135 
      "></polygon>
</g>
<g id="_x31_940" display="none">
  
    <rect x="1176.7" y="1036.8" transform="matrix(-0.9768 -0.2143 0.2143 -0.9768 2120.9873 2317.0598)" display="inline" fill="#9657A0" width="18.8" height="13.5"></rect>
  <polygon display="inline" fill="#9657A0" points="845.7,1673.1 837.6,1669 839,1666.2 821.8,1657.5 819.9,1661.2 808.6,1655.5 
    801.1,1670.1 829.3,1684.4 835,1673.4 843.3,1677.6   "></polygon>
</g>
</svg>