<svg id="_1911" data-name="1911" xmlns="http://www.w3.org/2000/svg" viewBox="0 0 335.41667 621.33206"><defs><style>.cls-1{fill:#900;}</style></defs><title>1911-disappeared</title><polygon fill="#cecece" points=" 1117.08333,1105.16667 1119.9166599999999,1103.75 1121.33333,1105.66667 1122.5,1106 1122.25,1107.66667 1125.66667,1108.3333400000001 1126.3333400000001,1105.5000100000002 1128.2500100000002,1105.9166800000003 1128.5833400000001,1105.3333500000003 1132.0000100000002,1105.9166800000003 1132.0833400000001,1106.7500100000002 1132.8333400000001,1107.1666800000003 1130.16667,1117.6666800000003 1124.0833400000001,1116.2500100000002 1124.66667,1113.3333400000001 1120.41667,1112.41667 1119.75,1115.16667 1114.91667,1113.91667"></polygon><polygon fill="#cecece" points=" 1121.83333,1148.33333 1119,1162 1097.5,1157.33333 1098.33333,1153.1666599999999 1101.1666599999999,1153.6666599999999 1103.1666599999999,1144.1666599999999 1109.83333,1145.4999899999998 1109.1666599999999,1149.6666599999999 1112.4999899999998,1150.33333 1113.3333199999997,1146.33333"></polygon><polygon fill="#cecece" points=" 1129.33333,1335.16667 1128.33333,1340 1129.6666599999999,1340.66667 1128.6666599999999,1345 1126.9999899999998,1345.16667 1125.6666599999999,1350.8333400000001 1108.6666599999999,1347.3333400000001 1112.1666599999999,1331.66667"></polygon><polygon fill="#cecece" points=" 1133.83333,1355.16667 1131.33333,1367.5 1123,1365.5 1119.5,1381.33333 1117.5,1383.83333 1102.66667,1380.33333 1100.8333400000001,1379.33333 1102.5000100000002,1377.6666599999999 1103.3750100000002,1373.2499899999998 1104.8333400000001,1366.6666599999999 1106,1359.83333 1105.375,1357.125 1107.95833,1357.375 1111.7916599999999,1358.04167 1112.6666599999999,1354.3333400000001 1111.83333,1354.16667 1112.83333,1349.3333400000001 1116.33333,1350.0000100000002 1116.33333,1351.6666800000003"></polygon><polygon fill="#cecece" points=" 1100.66667,1431.16667 1112.5,1437.5 1103.33333,1454.16667 1091.5,1447.5 1094.16667,1442.5 1092.5,1441.16667 1096,1434.8333400000001 1098,1436"></polygon><polygon fill="#cecece" points=" 1089,1450.875 1096.875,1455.125 1096.125,1457.125 1101.375,1460 1098.875,1464.625 1097.375,1463.75 1096.625,1465.625 1095.125,1464.875 1092.875,1469 1094.25,1469.875 1092.875,1472.375 1094.5,1473 1092.125,1477.875 1086.875,1474.5 1086.125,1475.75 1078.625,1471.5 1081.375,1465.75 1080,1464.875 1081.375,1462.5 1082,1463 1083.75,1459.75 1083.125,1459 1085.125,1456.125 1086.25,1456.625"></polygon><polygon fill="#cecece" points=" 1086.125,1494.875 1087,1494.875 1090,1490 1124.875,1509.75 1119.5,1519 1114.25,1516.125 1114.875,1514.75 1090.25,1501.125 1089.375,1502 1084,1498.625"></polygon><polygon fill="#cecece" points=" 907,1495 899,1510 874.83333,1496.16667 882.875,1481.625 883.875,1482.125 884.5,1481.625 885.875,1482.5 885.75,1483.125 888.875,1485.125 889.5,1484.56251 890.9375,1485.43751 890.75,1486.125 894.25,1488.125 895,1487.56251 896.25,1488.375 896.125,1489.125 899.75,1491.125 900.3125,1490.625 901.5,1491.375 901.5,1492.25 905.125,1494.125 905.8125,1493.56251 906.75,1494.125"></polygon><polygon fill="#cecece" points=" 899.25,1535.75 893.5,1547 890.25,1545.5 885.5,1555 877.5,1550.25 882.5,1540.75 876.16667,1537.16667 882,1526.25"></polygon><polygon fill="#cecece" points=" 847.66667,1523.83333 836.16667,1545 831.66667,1542.66667 832.3333399999999,1541.3333400000001 830.66667,1540.5000100000002 829.8333399999999,1541.6666800000003 825,1539 836.66667,1517.66667 841.5,1520.16667 840.66667,1521.5 842.3333399999999,1522.66667 843.3333399999999,1521.16667"></polygon><polygon fill="#cecece" points=" 856.66667,1537.16667 871.66667,1545.3333400000001 870.16667,1548.5000100000002 872.5,1549.8333400000001 871.16667,1552.5 867.8333399999999,1550.66667 868.5000099999999,1549.3333400000001 866.6666799999998,1548.3333400000001 861.3333499999998,1558.16667 855.1666799999998,1554.66667 853.83333,1557 851,1555.375 852.125,1553 849,1551"></polygon><polygon fill="#cecece" points=" 915.75,1580.125 917.125,1581 914.875,1585.375 918.375,1587.25 915.25,1593.25 911.875,1591.25 909.5,1595.25 898,1589.25 900.5,1584.625 899,1579.875 904.125,1577.75 907,1572.875 916.625,1578.375"></polygon><polygon fill="#cecece" points=" 862.375,1570.25 850.5,1592.125 842.25,1588 844,1584.125 842.375,1582.5 848,1572.125 849.875,1573 854,1565.375"></polygon><polygon fill="#cecece" points=" 856.125,1613 859.75,1619.375 848.25,1639.25 835.125,1632 839.375,1624.375 844.75,1627.375 849.125,1618.75 843.75,1615.875 847.75,1608.25"></polygon><polygon fill="#cecece" points=" 826.16667,1598.5 827.75,1595.83333 833.66667,1598.9166599999999 830.66667,1604.33333 832.8333399999999,1604.1666599999999 833.16667,1607.58333 831.75,1607.83333 833.83333,1609.4166599999999 829,1618.1666599999999 819.83333,1613.08333 818.83333,1614.58333 812.9166600000001,1611.1666599999999 814.83333,1607.7499899999998 815.83333,1608.4166599999999 819.25,1602.25 818,1601.41667 821.33333,1595.5"></polygon><polygon fill="#cecece" points=" 987.875,1521.875 996,1526.875 985.375,1546.75 987.75,1548.125 991.75,1546.875 992.5,1550.5 993.875,1551.25 995.25,1548.75 999.125,1551 997.75,1553.625 1001.25,1555.5 1012.375,1535 1020.875,1539.75 1005.25,1569 996,1564.125 997,1562.25 993.875,1560.5 992.75,1562.25 989.375,1560.25 990.375,1558.5 981,1553.5 979.875,1555.625 971.25,1550.5"></polygon><polygon fill="#cecece" points=" 1098.25,1387.375 1108.75,1393.125 1110,1391.125 1115.25,1394.25 1114.375,1395.875 1120.375,1399.375 1113.625,1410.625 1110.625,1409 1107.875,1413 1104.875,1410.875 1103,1414.375 1099.5,1412.5 1101.25,1409.25 1097.625,1406.75 1099.5,1403.25 1094.625,1400.125 1098.875,1392.75 1095.875,1391.125"></polygon><polygon fill="#cecece" points=" 919.5,1692.5 929,1697.75 919.25,1715.25 913.75,1725 906.5,1720 897.75,1714.75 903.5,1704 911,1708.25"></polygon><polygon fill="#cecece" points=" 1125.91667,1376.91667 1134.5,1379 1134.5,1380.58333 1135.75,1380.5 1135.91667,1379.41667 1136.91667,1379.66667 1138.25,1373.66667 1137.08333,1371.3333400000001 1140,1369.8333400000001 1144.33333,1371.0000100000002 1146.58333,1372.9166800000003 1144.6666599999999,1375.4166800000003 1144.08333,1378.4166800000003 1148.25,1379.6666800000003 1148,1382.4166800000003 1148.33333,1382.6666800000003 1146.33333,1391.1666800000003 1139.75,1389.75 1139,1392.25 1139.83333,1393.66667 1140.875,1394.125 1139.16667,1396.16667 1137.91667,1396.66667 1136.41667,1396.25 1134.75,1397 1133.91667,1395.66667 1132,1394.16667 1130.91667,1392.25 1131.8333400000001,1388 1131.91667,1385.5 1133.91667,1384.33333 1134.0833400000001,1383 1133.5000100000002,1383.08333 1132.7500100000002,1384.25 1124.6666800000003,1382.25"></polygon></svg>
