<svg id="_2010" data-name="2010" xmlns="http://www.w3.org/2000/svg" viewBox="0 0 135.05825 207.92718"><defs><style>.cls-1{fill:#000bff;}</style></defs><title>2010-disappeared</title><polygon fill="#cecece" points=" 1036.644,1105.80906 1071.27183,1102.57282 1073.2135799999999,1124.90292 1037.9384999999997,1127.81554"></polygon><polygon fill="#cecece" points=" 1015.60841,1107.92718 1028.8770200000001,1106.9563099999998 1028.8770200000001,1115.8414199999997 1021.4336500000002,1115.8414199999997 1021.25,1114.5 1018,1114.75 1017.75,1109.75 1015.75,1109.75"></polygon><polygon fill="#cecece" points=" 1093.5,1106 1097.41667,1106.75 1097.91667,1103.83333 1102.5833400000001,1104.75 1102.0833400000001,1108 1103.3333400000001,1108.25 1103.91667,1105 1108.4583400000001,1105.875 1108.1250100000002,1108.70833 1111.6250100000002,1109.45833 1110.9166800000003,1113.6666599999999 1107.0833500000003,1112.8749899999998 1106.5833500000003,1116.0416599999999 1102.0833500000003,1115.08333 1102.5833500000003,1112.25 1100.9166800000003,1111.91667 1100.5,1114.75 1095.91667,1113.91667 1096.5,1110.8333400000001 1092.75,1109.91667"></polygon><polygon fill="#cecece" points=" 1092.66667,1116.33333 1098.66667,1117.6666599999999 1100.5833400000001,1121.7499899999998 1102.16667,1121.1666599999999 1102.75,1122.6666599999999 1100.41667,1133.83333 1113.91667,1136.5 1114.3333400000001,1134.33333 1119.8333400000001,1135.58333 1119.91667,1134.83333 1122,1135.4166599999999 1125.33333,1120.2499899999998 1136.9166599999999,1122.6666599999999 1135.9166599999999,1128.2499899999998 1136.9999899999998,1128.4166599999999 1132.2499899999998,1150.2499899999998 1122.2499899999998,1148.3333199999997 1117.3333199999997,1146.8333199999997 1117.2499899999998,1145.1666499999997 1102.9999899999998,1142.1666499999997 1100.6666599999999,1153.5833199999997 1092.6666599999999,1151.9999899999998 1094.08333,1145.0833199999997 1092.58333,1144.7499899999998 1094.33333,1136.6666599999999 1092.75,1136.4166599999999 1093.08333,1134.6666599999999 1092.33333,1133.4166599999999 1093.25,1129.33333 1091.58333,1128.75 1093.1666599999999,1122.16667 1091.6666599999999,1121.75"></polygon><polygon fill="#cecece" points=" 1070,1182.66667 1085,1186.5 1083.66667,1191.5 1091.3333400000001,1193.5 1092.8333400000001,1188.66667 1118.8333400000001,1196.16667 1117.5,1202.5 1101.33333,1198.5 1099.33333,1206.16667 1079.83333,1200.66667 1082.1666599999999,1193.16667 1068.33333,1189.3333400000001"></polygon><polygon fill="#cecece" points=" 1122.83333,1277.83333 1137.83333,1292.5 1141.6666599999999,1297.33333 1150.6666599999999,1308.5 1149.83333,1309.66667 1148.33333,1309 1147,1310.5 1145.16667,1308.66667 1142.16667,1308 1140.8333400000001,1309 1140.16667,1307.66667 1137,1307.16667 1133.5,1302.8333400000001 1120,1300 1120.16667,1298.33333 1118.8333400000001,1297.6666599999999 1122.3333400000001,1280.4999899999998 1121.16667,1279.6666599999999"></polygon></svg>
