<svg id="_1835" data-name="1835" xmlns="http://www.w3.org/2000/svg" viewBox="0 0 93.19 144.91">
  <title>Yale-Disappeared-Buildings</title>
  <polygon fill="#cecece" points=" 957.07,1594.9 950.22,1591.26 949.9200000000001,1590.26 958.9200000000001,1573.26 959.9200000000001,1572.96 966.7700000000001,1576.6000000000001 967.07,1577.6000000000001 958.07,1594.6000000000001 957.07,1594.9"></polygon>
  <polygon fill="#cecece" points=" 941.76,1625.3 951.05,1607.83 950.92,1607.4099999999999 943.55,1603.4899999999998 943.13,1603.62 933.84,1621.09 933.97,1621.51 941.34,1625.43 941.76,1625.3"></polygon>
  <polygon fill="#cecece" points=" 925.32,1656.34 934.5,1639.07 934.29,1638.37 927.49,1634.75 926.79,1634.96 917.61,1652.23 917.82,1652.93 924.62,1656.55 925.32,1656.34"></polygon>
  <polygon fill="#cecece" points=" 893.12,1717.43 901.95,1700.8300000000002 901.62,1699.7500000000002 895.3100000000001,1696.4000000000003 894.23,1696.7300000000002 885.4,1713.3300000000002 885.73,1714.41 892.04,1717.76 893.12,1717.43"></polygon>
  <polygon fill="#cecece" points=" 970.6,1603.82 966.6,1610.6899999999998 966.78,1611.37 973.78,1615.37 974.4599999999999,1615.1899999999998 978.4599999999999,1608.32 978.28,1607.6399999999999 971.28,1603.6399999999999 970.6,1603.82"></polygon>
  <polygon fill="#cecece" points=" 907,1609.53 902.2,1618.53 902.37,1619.09 911.03,1623.6899999999998 911.5899999999999,1623.5199999999998 916.3899999999999,1614.5199999999998 916.2199999999999,1613.9599999999998 907.56,1609.36 907,1609.53"></polygon>
  <polygon fill="#cecece" points=" 941.44,1632.11 939.6,1635.57 937.44,1634.4199999999998 936.44,1636.2499999999998 922.36,1628.7599999999998 926.26,1621.4299999999998 940.34,1628.9199999999998 939.26,1630.9199999999998"></polygon>
  <polygon fill="#cecece" points=" 923.35,1666.39 921.26,1665.2800000000002 919.95,1667.7400000000002 905.87,1660.2500000000002 910.3100000000001,1651.9000000000003 924.3900000000001,1659.3900000000003 923.1000000000001,1661.8100000000004 925.1900000000002,1662.9200000000003"></polygon>
  <polygon fill="#cecece" points=" 909.44,1694 907.6,1697.46 905.24,1696.21 904.16,1698.21 889.62,1690.48 893.96,1682.32 908.5,1690.05 907.09,1692.71"></polygon>
  <polygon fill="#cecece" points=" 891.69,1639 885.4300000000001,1650.77 885.4300000000001,1650.84 894.73,1655.78 894.8000000000001,1655.78 901.0600000000001,1644.01 901.0600000000001,1643.94 891.7600000000001,1639 891.69,1639"></polygon>
</svg>

