<svg version="1.1" id="Layer_0_xA0_Image_1_" xmlns="http://www.w3.org/2000/svg" xmlns:xlink="http://www.w3.org/1999/xlink" x="0px" y="0px" viewBox="0 0 3032 2341" style="enable-background:new 0 0 3032 2341;" xml:space="preserve">
<style type="text/css">
  .st0{fill:#FFFFFF;}
</style>
<g>
  <g>
    
    <polygon fill="#cecece" points=" 1006.9,1406 1031.5,1415.4 1044.7,1422.1000000000001 1046.9,1431.8000000000002 1045.7,1433.4 1020.9000000000001,1440.1000000000001 985.2,1424.9 960.2,1430.4 950.8000000000001,1439.3000000000002 943.7,1439.2000000000003 942.9000000000001,1433.1000000000004 952.4000000000001,1413.5000000000005 959.8000000000001,1410.0000000000005 965.5000000000001,1411.4000000000005 975.3000000000001,1406.3000000000006 982.5000000000001,1387.7000000000007 994.3000000000001,1382.2000000000007 1007.8000000000001,1385.8000000000006 1012.0000000000001,1397.3000000000006 1006.9,1406"></polygon>
    <polygon fill="#cecece" points=" 1746.1,856.9 1778.1,865.5 1786.1,875.4 1782.1,886.9 1774.6,887.8 1762.3,888.4 1775.8,898.1999999999999 1771.5,920.4999999999999 1756.9,931.0999999999999 1729.8000000000002,922.5999999999999 1727.1000000000001,921.4999999999999 1707.6000000000001,910.8999999999999 1712.7,895.7999999999998 1731.5,892.2999999999998 1752.9,891.7999999999998 1751.2,881.6999999999998 1740.8,878.1999999999998 1737.2,867.2999999999998 1746.1,856.9"></polygon>
    <polygon fill="#cecece" points=" 1776.6,666.8 1807.3999999999999,672.1999999999999 1871.6,686.4999999999999 1877.8999999999999,699.1999999999999 1874.1999999999998,707.4 1863.1,712 1807.1999999999998,698.3 1772.9999999999998,691.3 1766.6999999999998,679.5 1770.4999999999998,671.4 1776.6,666.8"></polygon>
    <polygon fill="#cecece" points=" 1731.6,711.4 1748.1999999999998,708.1 1749.9999999999998,707.6 1775.5999999999997,696.3000000000001 1812.0999999999997,713.1 1802.9999999999998,736.2 1790.5999999999997,736.9000000000001 1784.1999999999996,730.3000000000001 1770.4999999999995,728.9000000000001 1761.7999999999995,730.3000000000001 1755.7999999999995,739.3000000000001 1745.4999999999995,748.5000000000001 1748.9999999999995,753.2000000000002 1744.9999999999995,765.0000000000001 1739.7999999999995,769.8000000000001 1728.1999999999996,768.0000000000001 1742.5999999999997,736.8000000000001 1738.3999999999996,715.8000000000001 1731.6,711.4"></polygon>
    <polygon fill="#cecece" points=" 1131.2,1196.8 1140,1189.5 1163,1175.6 1176.3,1176.8 1189.6,1188.3999999999999 1178.6999999999998,1191.1999999999998 1168.2999999999997,1190.8999999999999 1192.2999999999997,1209.8 1194.4999999999998,1222.8999999999999 1185.2999999999997,1234.6999999999998 1168.8999999999996,1235.9999999999998 1149.1999999999996,1216.2999999999997 1131.2,1196.8"></polygon>
    <polygon fill="#cecece" points=" 1029.9,1471.6 1042.8000000000002,1450.8999999999999 1058.0000000000002,1432.1999999999998 1073.3000000000002,1439.1999999999998 1085.7000000000003,1441.1999999999998 1094.9000000000003,1445.9999999999998 1099.8000000000004,1451.7999999999997 1089.1000000000004,1467.4999999999998 1079.3000000000004,1469.9999999999998 1064.6000000000004,1463.7999999999997 1047.9000000000003,1468.0999999999997 1051.6000000000004,1468.8999999999996 1077.6000000000004,1475.5999999999997 1087.5000000000005,1482.0999999999997 1091.7000000000005,1487.7999999999997 1084.4000000000005,1492.8999999999996 1079.6000000000006,1491.5999999999997 1059.4000000000005,1486.9999999999998 1055.7000000000005,1485.8999999999999 1033.1000000000006,1473.9999999999998 1029.9,1471.6"></polygon>
    <polygon fill="#cecece" points=" 1768.5,234.2 1762,232.7 1741.7,228.89999999999998 1724.6000000000001,218.29999999999998 1734.3000000000002,207.39999999999998 1740.4,218.09999999999997 1765.7,222.39999999999998 1771.6000000000001,223.29999999999998 1782.0000000000002,237.79999999999998 1765.7000000000003,249.89999999999998 1747.3000000000002,251.99999999999997 1736.9,251.29999999999998 1723.5,246.49999999999997 1716.9,264.4 1707.5,279.09999999999997 1727.1,282.09999999999997 1731.8999999999999,286.49999999999994 1726.3999999999999,290.8999999999999 1697.1,285.19999999999993 1695.3999999999999,274.19999999999993 1708.1,248.59999999999994 1732.8,237.89999999999995 1742.1,241.49999999999994 1755.5,239.99999999999994 1762.8,238.09999999999994 1768.7,236.89999999999995 1768.5,234.2"></polygon>
    <polygon fill="#cecece" points=" 1457.5,754.6 1452.4,724.6 1463.5,719 1470.7,727 1470.8,733 1470.8,767 1476.5,761.3 1481.9,758.5999999999999 1486.1000000000001,763.4999999999999 1484.0000000000002,769.3999999999999 1477.3000000000002,772.1999999999998 1479.5000000000002,774.5999999999998 1484.1000000000001,779.8999999999997 1478.3000000000002,785.3999999999997 1469.3000000000002,793.4999999999998 1475.6000000000001,818.8999999999997 1468.6000000000001,822.5999999999998 1459.4,819.0999999999998 1459.9,795.4999999999998 1452.9,779.9999999999998 1449.7,772.3999999999997 1450.2,759.6999999999997 1454.3,756.7999999999997 1457.5,754.6"></polygon>
    <polygon fill="#cecece" points=" 1493.8,915.1 1481.2,920.5 1497.1000000000001,933.8 1505.8000000000002,925.4 1501.6000000000001,921.6999999999999 1504.9,910.5999999999999 1521.6000000000001,912.6999999999999 1524.2,927.1999999999999 1522.3,941.8 1512.3999999999999,951.5 1509.9999999999998,953.1 1500.2999999999997,959 1484.8999999999996,956.2 1478.5999999999997,953.4000000000001 1469.0999999999997,941.8000000000001 1468.0999999999997,922.8000000000001 1476.9999999999998,907.4000000000001 1493.8,915.1"></polygon>
    <polygon fill="#cecece" points=" 1502.1,887.8 1484.3999999999999,872.5 1480.9999999999998,857 1482.0999999999997,849.5 1505.0999999999997,833 1508.2999999999997,830.9 1521.2999999999997,835.1 1523.4999999999998,839.6 1528.7999999999997,860.3000000000001 1512.1999999999998,884.6 1502.1,887.8"></polygon>
    <polygon fill="#cecece" points=" 2285,1533 2278.6,1544.2 2233.4,1605.1000000000001 2156.5,1707.2 2079.1,1813.9 2017.6,1898.9 2011.5,1905.2 2015.6,1894.2 2053.4,1841.4 2089.5,1792.4 2150.3,1708.3000000000002 2186.7000000000003,1660.7000000000003 2233.4,1598.5000000000002 2266.3,1553.5000000000002 2285,1533 2285,1533"></polygon>
    <polygon fill="#cecece" points=" 1208.3,1411.6 1197.8,1418.5 1180,1420 1167,1416.3 1158.4,1416.3 1130.2,1403.8999999999999 1124.8,1401.8 1101.8999999999999,1396.3 1093.3,1390.2 1093,1381.1000000000001 1100.4,1377.7 1109,1379.5 1122,1384.4 1139.9,1396.4 1152.4,1398.8000000000002 1166.5,1400.7000000000003 1186.3,1405.1000000000004 1208.3,1411.6"></polygon>
    <polygon fill="#cecece" points=" 1097.2,1427.5 1070.8,1421.7 1079.8,1403 1094.1,1412.1 1092.6,1419.3 1100,1414.8999999999999 1110.7,1411.1999999999998 1151.2,1428.1999999999998 1153.9,1437.3999999999999 1149.1000000000001,1443.8 1133.6000000000001,1448.3 1105.0000000000002,1436.3999999999999 1097.2,1427.5"></polygon>
    <polygon fill="#cecece" points=" 2715.5,989.4 2714.2,992.6999999999999 2416.3999999999996,1360.3 2421.0999999999995,1352.2 2713.7999999999993,988.3000000000001 2715.5,989.4"></polygon>
    <polygon fill="#cecece" points=" 1152.9,1144.9 1129.9,1158.7 1124.6000000000001,1162 1144.6000000000001,1164.7 1140.6000000000001,1168.9 1122.6000000000001,1179.6000000000001 1111.4,1177.7 1088.7,1154.1000000000001 1083.8,1136.6000000000001 1082.8,1126.8000000000002 1093.3,1123.1000000000001 1094,1136.3000000000002 1104.9,1142.2000000000003 1121.5,1150.2000000000003 1126,1148.9000000000003 1134.1,1143.4000000000003 1141.3999999999999,1136.8000000000004 1149.1,1141.2000000000005 1152.9,1144.9"></polygon>
    <polygon fill="#cecece" points=" 1552,936.8 1546.4,933.9 1542.5,926.6999999999999 1551.7,908.4 1556.6000000000001,907.1 1551.0000000000002,915.9 1562.7000000000003,913.3 1575.1000000000004,912.8 1584.0000000000005,916.8 1595.6000000000004,919.5999999999999 1600.6000000000004,930.3 1598.2000000000003,936.8 1602.1000000000004,945.0999999999999 1606.5000000000005,939.8 1619.0000000000005,940.4 1616.2000000000005,946.9 1602.8000000000004,953.6999999999999 1591.2000000000005,950.9 1586.8000000000004,943.6999999999999 1589.8000000000004,932.0999999999999 1575.1000000000004,927.5999999999999 1568.1000000000004,942.6999999999999 1555.3000000000004,947.1999999999999 1551.7000000000005,947.8 1543.6000000000006,947.8 1552,936.8"></polygon>
    <polygon fill="#cecece" points=" 1675.1,1133.1 1664.6999999999998,1127.5 1681.7999999999997,1118.3 1686.3999999999996,1120.2 1694.8999999999996,1138.3 1681.4999999999995,1179.1 1671.4999999999995,1185.3 1669.4999999999995,1185 1659.9999999999995,1163.4 1665.5999999999995,1155.2 1675.1,1133.1"></polygon>
    <polygon fill="#cecece" points=" 751.6,1577.8 749.4,1575.8999999999999 747.1,1568.3 755.3000000000001,1564.1 761.0000000000001,1566 788.6000000000001,1577.5 792.5000000000001,1590.4 790.1000000000001,1594 772.6000000000001,1586.2 760.7000000000002,1609.4 744.4000000000002,1615.9 737.1000000000003,1599 751.6,1577.8"></polygon>
    <polygon fill="#cecece" points=" 1250.3,1058.6 1232.5,1044.6999999999998 1219.2,1049.8999999999999 1219.3,1053.8999999999999 1217.2,1061.3 1207.9,1061.2 1205.7,1059.2 1208.8,1040.8 1246.1,1030.8999999999999 1262.6,1042.4999999999998 1267.6,1062.7999999999997 1261.6999999999998,1072.6999999999998 1248.1,1072.8999999999999 1241.3,1067.6999999999998 1246,1058.4999999999998 1250.3,1058.6"></polygon>
    <polygon fill="#cecece" points=" 1619.2,278.8 1630.9,281 1610,319.3 1623.2,318.40000000000003 1638.3,289.1 1644.2,279.90000000000003 1652.1000000000001,278.6 1653.7,285.20000000000005 1641.4,311.00000000000006 1635.2,321.1000000000001 1601.3,330.1000000000001 1600,311.1000000000001 1617.3,280.80000000000007 1619.2,278.8"></polygon>
    <polygon fill="#cecece" points=" 1731.6,367.8 1727.6999999999998,350.6 1725.1999999999998,349.70000000000005 1715.2999999999997,350.30000000000007 1714.0999999999997,335.00000000000006 1723.4999999999998,331.6000000000001 1746.4999999999998,338.2000000000001 1758.7999999999997,341.8000000000001 1773.0999999999997,351.7000000000001 1768.3999999999996,366.5000000000001 1731.6,367.8"></polygon>
    <polygon fill="#cecece" points=" 1002.7,1833.4 986.8000000000001,1824.4 1009.6,1822.5 1019.9,1830.3 1033.8,1845.5 1042.8,1856.1 1022.8,1873.8 1008.5999999999999,1865.6 1015.8999999999999,1855.6 1025.3999999999999,1852.5 1002.7,1833.4"></polygon>
    <polygon fill="#cecece" points=" 1393.3,1286.6 1378.3,1305.3999999999999 1373.1,1312.4999999999998 1361.3999999999999,1318.2999999999997 1329.3999999999999,1304.9999999999998 1342.3999999999999,1285.4999999999998 1346.6999999999998,1278.9999999999998 1358.6,1273.9999999999998 1364,1276.5999999999997 1380.9,1281.7999999999997 1393.3,1286.6"></polygon>
    <polygon fill="#cecece" points=" 1531.6,1093.6 1524.1999999999998,1105.8 1513.1,1098.8999999999999 1500.6999999999998,1104.6 1506.8999999999999,1119.8 1501.1,1141 1481.5,1145.4 1480.3,1140 1487.3,1110.9 1488.1,1109.1000000000001 1498.5,1085.5000000000002 1531.6,1093.6"></polygon>
    <polygon fill="#cecece" points=" 927.5,1282.6 940,1277.8 959.8,1285.3999999999999 985.5999999999999,1295.8 988.4999999999999,1308.2 976.9999999999999,1321.8 970.8999999999999,1330.3999999999999 962.9999999999999,1334.1 956.6999999999999,1330.3999999999999 956.4999999999999,1317.3999999999999 960.8999999999999,1310.1999999999998 970.2999999999998,1308.6 952.5999999999998,1294.5 950.5999999999998,1294.3 927.5,1282.6"></polygon>
    <polygon fill="#cecece" points=" 1219.6,1377.9 1233.3,1384.3000000000002 1232.3999999999999,1390.8000000000002 1239.1999999999998,1399.0000000000002 1227.4999999999998,1411.7000000000003 1217.7999999999997,1404.7000000000003 1209.1999999999998,1399.7000000000003 1203.2999999999997,1400.2000000000003 1198.5999999999997,1393.3000000000002 1203.9999999999998,1379.5000000000002 1204.4999999999998,1378.6000000000001 1230.8999999999999,1354.0000000000002 1240.6999999999998,1354.7000000000003 1219.6,1377.9"></polygon>
    <polygon fill="#cecece" points=" 1606.5,1231.3 1613.3,1228.2 1598.3,1217.7 1610.1,1213.1000000000001 1621.3,1214.7 1628.6,1215.9 1629,1218.3000000000002 1629.2,1230.6000000000001 1647,1230.1000000000001 1652.5,1225.9 1663.9,1229.1000000000001 1658.2,1249.9 1647.4,1254.7 1618.2,1239.9 1606.4,1233.7 1606.5,1231.3"></polygon>
    <polygon fill="#cecece" points=" 787.4,1802.5 804.5,1796.7 812.6,1801 832.5,1835.4 828.8,1847 819.4,1850.1 812.6999999999999,1847.3999999999999 787.4,1802.5"></polygon>
    <polygon fill="#cecece" points=" 1580,853.8 1580,827.0999999999999 1611,832.3 1606.2,838 1599.3,837.4 1592.3999999999999,846 1588.1,861.9 1585.3,868.8 1589.8999999999999,887.9 1593.6999999999998,893.9 1574.6,896 1563.8,881.4 1570,866.1999999999999 1580,853.8"></polygon>
    <polygon fill="#cecece" points=" 1096.4,1771 1077.2,1763.3 1079.4,1757.2 1101.6000000000001,1724.1000000000001 1111.9,1720.8000000000002 1113.7,1721.6000000000001 1118.3,1741.0000000000002 1096.4,1771"></polygon>
    <polygon fill="#cecece" points=" 1152.9,1144.9 1149.2,1141.2 1147.7,1137.5 1144.6000000000001,1122.8 1144.0000000000002,1118.1 1171.1000000000001,1094.5 1170.0000000000002,1087.2 1180.3000000000002,1087.5 1192.7000000000003,1094.3 1197.7000000000003,1097.7 1188.6000000000004,1101.1000000000001 1177.8000000000004,1097.9 1153.6000000000004,1123.5 1161.8000000000004,1128.4 1159.0000000000005,1137.9 1167.1000000000004,1138.8000000000002 1188.1000000000004,1144.3000000000002 1189.6000000000004,1149.1000000000001 1176.0000000000005,1152.4 1156.7000000000005,1146.1000000000001 1152.9,1144.9"></polygon>
    <polygon fill="#cecece" points=" 1844.4,227.9 1821.5,219.20000000000002 1784.8,206.60000000000002 1774,201.70000000000002 1747.9,194.3 1740.3000000000002,189.20000000000002 1733.5000000000002,182.50000000000003 1689.3000000000002,164.00000000000003 1639.5000000000002,143.20000000000002 1633.6000000000001,138.4 1839.4,221.9 1845.2,226.3 1844.4,227.9"></polygon>
    <polygon fill="#cecece" points=" 1450.9,699.2 1447.9,703.8000000000001 1454.1000000000001,690.5000000000001 1451.7,659.4000000000001 1456.7,649.4000000000001 1469.3,645.3000000000001 1475.3999999999999,649.5000000000001 1470.3999999999999,654.7000000000002 1464.1,655.9000000000002 1469.6,669.7000000000002 1470,672.6000000000001 1467.1,694.7000000000002 1467.1,696.4000000000002 1468.1999999999998,705.8000000000002 1457.1,705.1000000000001 1450.9,699.2"></polygon>
    <polygon fill="#cecece" points=" 1435.8,905.3 1447.6,915.1999999999999 1448.3,920.0999999999999 1441.6,928.8 1412.8,931.0999999999999 1403.3999999999999,927.3 1402.9999999999998,910 1409.0999999999997,907.3 1435.8,905.3"></polygon>
    <polygon fill="#cecece" points=" 1418.5,1248.8 1414.7,1254.3999999999999 1408.9,1263.3 1396.1000000000001,1268.3 1394.4,1267.2 1370.8000000000002,1255.4 1367.9,1252.8000000000002 1373,1241.5000000000002 1389.4,1236.2000000000003 1407.9,1242.6000000000004 1418.5,1248.8"></polygon>
    <polygon fill="#cecece" points=" 1538.3,1164.9 1523.2,1162 1528.1000000000001,1141.4 1520.5000000000002,1132.9 1529.9000000000003,1127.6000000000001 1541.2000000000003,1115.8000000000002 1543.1000000000004,1111.5000000000002 1550.6000000000004,1112.6000000000001 1555.8000000000004,1126.0000000000002 1538.3,1164.9"></polygon>
    <polygon fill="#cecece" points=" 988.3,1288.9 990.3,1280.7 987.5999999999999,1280.5 978.0999999999999,1283.4 971.6999999999999,1280.8000000000002 976.9,1275.2000000000003 984.8,1275.7000000000003 993.5999999999999,1272.8000000000002 984.6999999999999,1267.8000000000002 978.1999999999999,1262.1000000000001 985.9,1260.9 993.1999999999999,1263.9 1005.4,1260.5 1009.1,1255.8 1024.1,1255.3999999999999 1019.8999999999999,1262.8 1003.5999999999999,1288.8999999999999 988.3,1288.9"></polygon>
    <polygon fill="#cecece" points=" 1742.9,278.7 1749.6000000000001,265.4 1762.9,256.9 1783.1000000000001,260.7 1786.6000000000001,275.59999999999997 1782.1000000000001,284.29999999999995 1774.2,285.9 1771.7,280.29999999999995 1772.5,271.49999999999994 1764.6,268.19999999999993 1757.1,280.3999999999999 1755.3999999999999,287.99999999999994 1748.6999999999998,292.3999999999999 1743.8999999999999,286.3999999999999 1742.9,278.7"></polygon>
    <polygon fill="#cecece" points=" 1527.1,467.1 1509,458.20000000000005 1502.3,450.1 1511,446.8 1516.6,447.1 1528.5,448.20000000000005 1535.5,441.1 1541.4,425.90000000000003 1552.5,427.3 1555.4,437.7 1538.6000000000001,462.4 1526.8000000000002,467 1527.1,467.1"></polygon>
    <polygon fill="#cecece" points=" 1564.5,323.8 1550.7,307.3 1560.3,281.40000000000003 1563.2,271.90000000000003 1565.6000000000001,264.3 1573.9,261 1578.1000000000001,267.9 1573.9,285.29999999999995 1569.6000000000001,296.49999999999994 1564.7,309.59999999999997 1564.5,323.8"></polygon>
    <polygon fill="#cecece" points=" 1239.1,1438.5 1221.3999999999999,1426 1215.4999999999998,1428.6 1210.4999999999998,1433.3 1204.2999999999997,1432.3999999999999 1203.6999999999998,1427.1999999999998 1227.8999999999999,1416.9999999999998 1239.8,1421.8999999999999 1249.1,1417.6999999999998 1254.1,1406.9999999999998 1269.5,1406.9999999999998 1260.7,1420.5999999999997 1243.9,1441.2999999999997 1235,1445.1999999999998 1239.1,1438.5"></polygon>
    <polygon fill="#cecece" points=" 1396.3,940.4 1416.5,935.6 1422.9,934.3000000000001 1446.3000000000002,931.2 1453.5000000000002,946.3000000000001 1446.4000000000003,948.7 1409.7000000000003,949.8000000000001 1396.3,940.4"></polygon>
    <polygon fill="#cecece" points=" 1347.7,101.6 1355.2,90.3 1392.3,46 1406.8999999999999,42 1478.9999999999998,71.1 1496.3999999999999,80.19999999999999 1495.6999999999998,81.99999999999999 1489.7999999999997,80.39999999999999 1461.3999999999996,71.69999999999999 1457.6999999999996,70.29999999999998 1409.1999999999996,46.999999999999986 1394.9999999999995,49.999999999999986 1366.5999999999995,83.49999999999999 1349.7999999999995,102.89999999999998 1347.7,101.6"></polygon>
    <polygon fill="#cecece" points=" 1586.2,751.6 1572.5,767.3000000000001 1577.4,776.6 1568.3000000000002,780.9 1557.4,772 1561,752.5 1568.5,739.2 1565.4,732.1 1584.9,732.1 1578,738.1 1576.6,755.7 1586.2,751.6"></polygon>
    <polygon fill="#cecece" points=" 1619.9,1118.5 1614.3000000000002,1132 1600.2000000000003,1134.1 1595.5000000000002,1128.8999999999999 1587.1000000000001,1120.1999999999998 1594.3000000000002,1102.8999999999999 1603.8000000000002,1101.1 1617.5000000000002,1112.6 1619.9,1118.5"></polygon>
    <polygon fill="#cecece" points=" 262.7,1571.1 209.29999999999998,1659.8 265,1684.8999999999999 264.4,1687.3 257.59999999999997,1686.1 210.89999999999998,1666.1 207.29999999999998,1653 245.39999999999998,1595.7 257.4,1576.2 262.7,1571.1"></polygon>
    <polygon fill="#cecece" points=" 1528.9,514 1544.2,516.1 1553.7,517.6 1552.9,525.6 1566.5,526.2 1557.2,540.3000000000001 1530.9,534.5000000000001 1525,522.1000000000001 1528.9,514"></polygon>
    <polygon fill="#cecece" points=" 1587.5,1201.7 1577.8,1216.5 1574.2,1217.6 1554.7,1214.3 1549.8,1203.6 1551.1,1200.8999999999999 1573.1,1192.8 1587.5,1201.7"></polygon>
    <polygon fill="#cecece" points=" 1332.4,1264.7 1329.6000000000001,1270.9 1314.5000000000002,1292 1304.5000000000002,1295.7 1272.2000000000003,1281.9 1284.0000000000002,1266.6000000000001 1297.8000000000002,1278.3000000000002 1314.8000000000002,1278.1000000000001 1324.7000000000003,1268.3000000000002 1332.4,1264.7"></polygon>
    <polygon fill="#cecece" points=" 1626.8,841.4 1632.1,829.6999999999999 1625.3999999999999,828.1999999999999 1617.3999999999999,827.1999999999999 1612.6,815.3 1620.8999999999999,812.5999999999999 1653.6,820.5999999999999 1644.1,840.8 1626.8,841.4"></polygon>
    <polygon fill="#cecece" points=" 1318.7,1366.5 1327.5,1359.4 1325.8,1352 1323.8,1331.3 1352.8,1331.7 1346.6,1345.7 1330.8,1366.1000000000001 1318.7,1366.5"></polygon>
    <polygon fill="#cecece" points=" 1039.6,1374.9 1050.6999999999998,1367.3000000000002 1057.1,1366.4 1070.5,1365.8000000000002 1084.3,1369.2000000000003 1073.8999999999999,1386.0000000000002 1063.8,1386.5000000000002 1049,1381.7000000000003 1039.6,1374.9"></polygon>
    <polygon fill="#cecece" points=" 1585,273.3 1594.8,282 1588.7,311.1 1577,325.6 1569.1,324.1 1570.1,317.3 1580.6999999999998,292.2 1585,273.3"></polygon>
    <polygon fill="#cecece" points=" 1814.5,340.5 1829.4,341.3 1831.2,346.5 1828.8,354 1826.5,367.1 1821.4,377.20000000000005 1807.5,374.40000000000003 1806.3,370.00000000000006 1815.6,353.6000000000001 1817.8999999999999,346.2000000000001 1814.5,340.5"></polygon>
    <polygon fill="#cecece" points=" 1165.4,1349.7 1142.6000000000001,1343.4 1131.1000000000001,1347.7 1117.5000000000002,1367.3 1109.8000000000002,1374.6 1111.8000000000002,1361.8 1128.5000000000002,1335.3 1139.9000000000003,1333.5 1149.5000000000002,1337.7 1165.4,1349.7"></polygon>
    <polygon fill="#cecece" points=" 1850.5,847.2 1860.8,860.8000000000001 1859.3999999999999,865.6 1836.4999999999998,872.3000000000001 1834.3999999999999,869.1 1847.3999999999999,847.6 1850.5,847.2"></polygon>
    <polygon fill="#cecece" points=" 1028,1693 1034.8,1685.4 1040.8999999999999,1684.9 1065.9999999999998,1696.6000000000001 1073.9999999999998,1700.7 1076.8999999999999,1709.5 1066.1,1712.5 1028,1693"></polygon>
    <polygon fill="#cecece" points=" 1245,1101.7 1250.1,1089.1000000000001 1256.8,1083.8000000000002 1278,1093.7000000000003 1278.6,1097.5000000000002 1262.8999999999999,1108.3000000000002 1245,1101.7"></polygon>
    <polygon fill="#cecece" points=" 1855.2,345 1865.6000000000001,342 1869.6000000000001,344.1 1869.3000000000002,347.6 1863.8000000000002,362.70000000000005 1860.4,375.1 1854.2,380.20000000000005 1845.1000000000001,378.20000000000005 1847.8000000000002,370.30000000000007 1851.4,359.50000000000006 1855.2,345"></polygon>
    <polygon fill="#cecece" points=" 1721,2303 1735.6,2296.3 1763.5,2256.3 1794.4,2209.8 1810.8000000000002,2187.5 1812.6000000000001,2188.5 1809.6000000000001,2195 1759.0000000000002,2269.1 1737.6000000000001,2300.4 1721,2303 1721,2303"></polygon>
    <polygon fill="#cecece" points=" 1682,821.5 1676.1,835.4 1670.3999999999999,840.4 1659.3999999999999,839.3 1658.1,830.4 1663,816.1999999999999 1682,821.5"></polygon>
    <polygon fill="#cecece" points=" 1667.2,1003.2 1657.5,1001.5 1656.5,1003.9 1643.5,1012.5 1637.2,1010.2 1650.8,1002.1 1646.1,993.8000000000001 1669.8999999999999,991.7 1667.2,1003.2"></polygon>
    <polygon fill="#cecece" points=" 1327.5,1210.5 1359.6,1223.9 1348.1999999999998,1243.2 1346.3999999999999,1236.8 1325.3999999999999,1223.7 1321.9999999999998,1225.4 1316.3999999999999,1222.6000000000001 1317.8,1217.6000000000001 1327.5,1210.5"></polygon>
    <polygon fill="#cecece" points=" 1417.8,1339 1428.8,1318.8 1448.6,1325.7 1436.5,1337.6000000000001 1437.5,1347.3000000000002 1432.6,1347.9 1417.8,1339"></polygon>
    <polygon fill="#cecece" points=" 1486,1349.3 1481.5,1359.8999999999999 1461.1,1356.6999999999998 1454.8,1353.9999999999998 1450,1348.6999999999998 1455.7,1341.4999999999998 1473.8,1343.1999999999998 1486,1349.3"></polygon>
    <polygon fill="#cecece" points=" 2835.5,841.5 2921.5,740.2 2917.5,751.3000000000001 2896.8,774.3000000000001 2863.7000000000003,814.1 2839.9,842.3000000000001 2837.4,843.6 2835.5,841.5"></polygon>
    <polygon fill="#cecece" points=" 1228.9,1020.1 1194,1035.1 1190.6,1033.1999999999998 1190.8,1024.9999999999998 1220.7,1011.7999999999997 1228.9,1020.1"></polygon>
    <polygon fill="#cecece" points=" 1819.5,326.6 1831.5,318 1853.9,325 1873,324.3 1863.3,332.40000000000003 1827.8999999999999,328.6 1819.5,326.6"></polygon>
    <polygon fill="#cecece" points=" 1706.9,481.6 1706.6000000000001,475.90000000000003 1716.3000000000002,477.90000000000003 1719.8000000000002,489.20000000000005 1713.5000000000002,499.50000000000006 1699.4000000000003,498.50000000000006 1700.3000000000004,485.30000000000007 1706.9,481.6"></polygon>
    <polygon fill="#cecece" points=" 924.4,1342.3 914.9,1350.1 903.8,1347.5 898.0999999999999,1341.9 901.9999999999999,1330.4 910.9999999999999,1329.5 923.2999999999998,1339.3 924.4,1342.3"></polygon>
    <polygon fill="#cecece" points=" 1581.7,642 1597.1000000000001,641.1 1597.1000000000001,649.9 1596.6000000000001,666.6 1592.3000000000002,674.5 1585.5000000000002,669.8 1582.5000000000002,649.1999999999999 1581.7,642"></polygon>
    <polygon fill="#cecece" points=" 959.4,1833.4 955.9,1847.1000000000001 949.4,1853.8000000000002 942.1999999999999,1850.3000000000002 935.4,1843.3000000000002 935.5,1836.7000000000003 957.2,1831.7000000000003 959.4,1833.4"></polygon>
    <polygon fill="#cecece" points=" 1842,413.3 1830.2,437.7 1829.6000000000001,428.09999999999997 1835.5000000000002,399.99999999999994 1844.4000000000003,402.79999999999995 1842,413.3"></polygon>
    <polygon fill="#cecece" points=" 1647.5,1112.7 1649.8,1104.2 1652.8,1096.3 1665.8,1092.3999999999999 1666.3,1105.8 1664.2,1109.2 1647.5,1112.7"></polygon>
    <polygon fill="#cecece" points=" 1831.2,656.4 1834.8,642.5 1845,639.7 1850.1,644.4000000000001 1857,652.4000000000001 1831.2,656.4"></polygon>
    <polygon fill="#cecece" points=" 1048,1813.4 1037.9,1819.4 1026.4,1824.7 1016.0000000000001,1816.5 1027.6000000000001,1809.7 1037.2,1807.1000000000001 1048,1813.4"></polygon>
    <polygon fill="#cecece" points=" 1416.9,1287.9 1424.5,1271.9 1436.5,1271.8000000000002 1430.6,1290.1000000000001 1416.9,1287.9"></polygon>
    <polygon fill="#cecece" points=" 1463.1,610.6 1461.8999999999999,597.4 1465.6,591.5 1475.3999999999999,592.3 1478.3,599.8 1479.5,604.5 1473.6,612.5 1471.6,612.2 1463.1,610.6"></polygon>
    <polygon fill="#cecece" points=" 861.9,1747.2 866.1999999999999,1752.9 860.4,1757.1000000000001 839.1,1765.6000000000001 838.2,1765.9 828,1762.8000000000002 835.9,1755.6000000000001 854.4,1752.9 861.9,1747.2"></polygon>
    <polygon fill="#cecece" points=" 1548.3,473.8 1541.7,488.5 1532.3,491.4 1529.3999999999999,482.29999999999995 1530.9999999999998,478.69999999999993 1548.3,473.8"></polygon>
    <polygon fill="#cecece" points=" 1502.5,1329.4 1495.2,1338.1000000000001 1481,1329.9 1466.3,1326.7 1477.2,1322 1489.5,1323.1 1502.5,1329.4"></polygon>
    <polygon fill="#cecece" points=" 1285.5,1305.4 1275.6,1310.6000000000001 1265.3,1307.0000000000002 1259.8999999999999,1298.8000000000002 1262.9999999999998,1293.2000000000003 1269.2999999999997,1294.0000000000002 1276.9999999999998,1300.3000000000002 1285.5,1305.4"></polygon>
    <polygon fill="#cecece" points=" 1568.1,477.6 1562.1999999999998,491.8 1553.9999999999998,495.5 1548.9999999999998,488 1568.1,477.6"></polygon>
    <polygon fill="#cecece" points=" 1047.1,1028.9 1040.8,1034.7 1027.2,1040.7 1018.3000000000001,1037.4 1047.1,1028.9"></polygon>
    <polygon fill="#cecece" points=" 2911.2,675.4 2962.5,697.1 2945,718.7 2943.2,717.4000000000001 2956.3999999999996,697.7 2911.2,675.4"></polygon>
    <polygon fill="#cecece" points=" 1555.5,1040.7 1548.1,1051.6000000000001 1532.8,1050.2 1531.7,1043.2 1538.5,1037.3 1555.5,1040.7"></polygon>
    <polygon fill="#cecece" points=" 2285,1533 2287.9,1526.7 2330.4,1470 2334,1466.8 2335.2,1468.6 2289.2999999999997,1529 2285,1533 2285,1533"></polygon>
    <polygon fill="#cecece" points=" 1651.3,1268.6 1648,1273.8999999999999 1637.8,1274.9999999999998 1629.2,1267.5999999999997 1634.7,1259.9999999999998 1648,1263.8999999999999 1651.3,1268.6"></polygon>
    <polygon fill="#cecece" points=" 1725.7,576.2 1715.9,586.1 1707.4,578.6 1718.8000000000002,568.9 1725.7,576.2"></polygon>
    <polygon fill="#cecece" points=" 1585.5,701.7 1581.7,710.3000000000001 1569.6000000000001,709.5000000000001 1563.5000000000002,700.2000000000002 1585.5,701.7"></polygon>
    <polygon fill="#cecece" points=" 1098.4,1484.8 1104.7,1477.5 1117.9,1485.9 1106.5,1495.7 1098.4,1484.8"></polygon>
    <polygon fill="#cecece" points=" 1526.9,466.9 1522.3000000000002,483.59999999999997 1509.0000000000002,485.2 1514.5000000000002,470 1527.0000000000002,467.1 1526.9,466.9"></polygon>
    <polygon fill="#cecece" points=" 1259.5,1329.2 1255,1339.2 1243.7,1342.6000000000001 1239.6000000000001,1333.5000000000002 1247.8000000000002,1326.2000000000003 1259.5,1329.2"></polygon>
    <polygon fill="#cecece" points=" 1205.6,1102 1208,1110 1201.9,1120.9 1194.3000000000002,1118.8000000000002 1187.6000000000001,1110.8000000000002 1205.6,1102"></polygon>
    <polygon fill="#cecece" points=" 2364.6,1426 2406.5,1371.3 2408.6,1372.3999999999999 2407.5,1377.1 2371.4,1423.3 2366.6,1428 2364.6,1426"></polygon>
    <polygon fill="#cecece" points=" 2322.6,428.1 2318.2,427.40000000000003 2257.7999999999997,399.70000000000005 2262.9999999999995,399.80000000000007 2323.2999999999997,426.00000000000006 2322.6,428.1"></polygon>
    <polygon fill="#cecece" points=" 1877.3,2091.1 1916.3999999999999,2033.3 1914.6,2043.5 1879.1999999999998,2092.4 1877.3,2091.1"></polygon>
    <polygon fill="#cecece" points=" 1587,963.3 1603,965.6999999999999 1607.3,970.0999999999999 1604.2,975.3999999999999 1591,975.3999999999999 1587,963.3"></polygon>
    <polygon fill="#cecece" points=" 1715.3,669 1708.1,676.5 1697.6,666.2 1707.5,659.8000000000001 1715.3,669"></polygon>
    <polygon fill="#cecece" points=" 1116.4,1549.9 1122.8000000000002,1540.2 1134.1000000000001,1537.9 1133.3000000000002,1547.6000000000001 1116.4,1549.9"></polygon>
    <polygon fill="#cecece" points=" 1043.8,1054.6 1029.1,1058.5 1023.3,1054.9 1026.3,1048.7 1031.6,1046.2 1043.8,1054.6"></polygon>
    <polygon fill="#cecece" points=" 1619.2,278.8 1617,281 1601,278.2 1598.5,272.5 1602.8,269.3 1617.2,272 1619.2,278.8"></polygon>
    <polygon fill="#cecece" points=" 1632.8,1024.2 1646.2,1019.7 1658.4,1031.4 1653.4,1034.1000000000001 1632.8,1024.2"></polygon>
    <polygon fill="#cecece" points=" 1500.9,431.8 1511.5,429.5 1520.7,434.8 1517.9,441 1506.1000000000001,440.6 1500.9,431.8"></polygon>
    <polygon fill="#cecece" points=" 1892.3,246.7 1943.2,267.7 1892.3,246.7"></polygon>
    <polygon fill="#cecece" points=" 1394.2,1210.4 1402.9,1214.6000000000001 1385.3000000000002,1224.1000000000001 1391.5000000000002,1212.2 1394.2,1210.4"></polygon>
    <polygon fill="#cecece" points=" 1074,1114 1076.4,1108.5 1100.2,1104 1102.9,1109 1096.1000000000001,1112.6 1076.0000000000002,1115.6 1074,1114"></polygon>
    <polygon fill="#cecece" points=" 1385.6,899.4 1380.1,899.6 1374.3999999999999,893.9 1379.8999999999999,889.1999999999999 1388.6999999999998,888.4999999999999 1394.6999999999998,893.1999999999999 1388.8999999999999,899.4999999999999 1385.6,899.4"></polygon>
    <polygon fill="#cecece" points=" 1592.9,623.4 1598.7,629.8 1590.7,638.9 1583.7,632.5 1592.9,623.4"></polygon>
    <polygon fill="#cecece" points=" 1435.2,978.9 1447.6000000000001,975.6999999999999 1451.9,986.4999999999999 1443.8000000000002,988.1999999999999 1435.2,978.9"></polygon>
    <polygon fill="#cecece" points=" 1585,1031.8 1567,1035 1564.4,1031.4 1567.6000000000001,1027 1585,1031.8"></polygon>
    <polygon fill="#cecece" points=" 939.3,1316.9 944.0999999999999,1310.6000000000001 948.3999999999999,1310.2 953.6999999999998,1323.4 950.0999999999998,1327.3000000000002 944.1999999999998,1325.3000000000002 939.3,1316.9"></polygon>
    <polygon fill="#cecece" points=" 1849.9,2136 1821.2,2177.3 1827.8,2161.6000000000004 1837.3,2147.6000000000004 1848.1,2134.4000000000005 1849.9,2136"></polygon>
    <polygon fill="#cecece" points=" 1406.3,1300.6 1426.5,1303.6999999999998 1428.7,1309.1999999999998 1423.2,1311.8999999999999 1407.9,1305.3 1406.3,1300.6"></polygon>
    <polygon fill="#cecece" points=" 1666.7,663.7 1655.2,664.1 1648.4,659.9 1650.1000000000001,653 1658.0000000000002,653.4 1668.1000000000001,661.6999999999999 1666.7,663.7"></polygon>
    <polygon fill="#cecece" points=" 1665.5,417.9 1676.2,402.4 1665.5,417.9"></polygon>
    <polygon fill="#cecece" points=" 1745.4,961.8 1729.1000000000001,961.6999999999999 1734.6000000000001,951.6999999999999 1745.4,961.8"></polygon>
    <polygon fill="#cecece" points=" 1377.4,909.9 1391.9,909.8 1396.8000000000002,916.1999999999999 1390.1000000000001,920.0999999999999 1377.4,909.9"></polygon>
    <polygon fill="#cecece" points=" 1339.2,113.4 1313.5,145.20000000000002 1339.2,113.4"></polygon>
    <polygon fill="#cecece" points=" 1665.9,942.3 1672.8000000000002,941.6999999999999 1683.1000000000001,943.9999999999999 1686.9,947.3999999999999 1683.9,951.6999999999998 1677.3000000000002,952.1999999999998 1665.9,942.3"></polygon>
    <polygon fill="#cecece" points=" 1638.8,679.8 1656.5,684.3 1651.2,693.8 1638.3,689 1638.8,679.8"></polygon>
    <polygon fill="#cecece" points=" 1594.5,682.9 1586.9,688.9 1579.4,683.1 1586.9,677.1 1594.5,682.9"></polygon>
    <polygon fill="#cecece" points=" 1977.6,1947.1 2001.6,1914.1999999999998 2003.6,1915.4999999999998 1992.3,1932.6999999999998 1980.5,1949.2999999999997 1977.6,1947.1"></polygon>
    <polygon fill="#cecece" points=" 1797.5,414.9 1794.2,425.7 1780.1000000000001,419.9 1795.3000000000002,413.2 1797.5,414.9"></polygon>
    <polygon fill="#cecece" points=" 1468.3,626.1 1475.2,628.4 1477.3,633.3 1467,636.5999999999999 1461.9,630.9999999999999 1468.3,626.1"></polygon>
    <polygon fill="#cecece" points=" 1181,2073 1162.3,2066.7 1131,2053.3999999999996 1133.1,2051.9999999999995 1181,2073 1181,2073"></polygon>
    <polygon fill="#cecece" points=" 1459.6,990.6 1468.8,982.6 1473.3999999999999,989.6 1459.6,990.6"></polygon>
    <polygon fill="#cecece" points=" 1956.2,1984.1 1932.6000000000001,2017.3 1954.3000000000002,1982.8 1956.2,1984.1"></polygon>
    <polygon fill="#cecece" points=" 1528.7,1033.4 1526.1000000000001,1042.1000000000001 1517.5000000000002,1043.9 1517.8000000000002,1035.4 1526.2000000000003,1031.5 1528.7,1033.4"></polygon>
    <polygon fill="#cecece" points=" 1645.6,1062 1662.3999999999999,1070 1649.1999999999998,1072.6 1645.6,1062"></polygon>
    <polygon fill="#cecece" points=" 1710.2,944 1688.7,937.4 1701.2,936.6 1710.2,944"></polygon>
    <polygon fill="#cecece" points=" 1672.3,373.5 1661.5,382.6 1656.7,377.5 1660.6000000000001,372.9 1672.3,373.5"></polygon>
    <polygon fill="#cecece" points=" 1620.6,1051.8 1630.6999999999998,1052 1634.1,1056.1 1630.6999999999998,1062.6 1625.6,1061.1 1619.6,1054 1620.6,1051.8"></polygon>
    <polygon fill="#cecece" points=" 1723.7,548.8 1718.8,535.5999999999999 1732.3999999999999,538.3999999999999 1733.1,540.8999999999999 1723.7,548.8"></polygon>
    <polygon fill="#cecece" points=" 1219.3,979.2 1239.5,976.5 1219.3,979.2"></polygon>
    <polygon fill="#cecece" points=" 1360.4,1163.8 1368.9,1157.5 1374.7,1159 1374.4,1164.2 1360.4,1163.8"></polygon>
    <polygon fill="#cecece" points=" 2740.6,956 2761.6,930.5 2763.9,932.3 2743,958.0999999999999 2740.6,956"></polygon>
    <polygon fill="#cecece" points=" 1406.3,1233.3 1416.7,1230.6 1420.1000000000001,1239.5 1406.3,1233.3"></polygon>
    <polygon fill="#cecece" points=" 1180.9,2073.1 1218,2089 1180.9,2073.1 1180.9,2073.1"></polygon>
    <polygon fill="#cecece" points=" 1143.9,1526.5 1134,1534.2 1132.1,1526.7 1143.9,1526.5"></polygon>
    <polygon fill="#cecece" points=" 1633.3,1090.9 1629.3999999999999,1098.3000000000002 1621.6,1095.4 1622.3999999999999,1087.6000000000001 1633.3,1090.9"></polygon>
    <polygon fill="#cecece" points=" 1681.9,341.3 1674.6000000000001,348.3 1668.9,345.8 1672.2,339.5 1681.9,341.3"></polygon>
    <polygon fill="#cecece" points=" 1862.6,637 1863.6999999999998,634.1 1874.9999999999998,633.3000000000001 1875.0999999999997,638.5000000000001 1865.1999999999996,638.9000000000001 1862.6,637"></polygon>
    <polygon fill="#cecece" points=" 1440.7,846.3 1436.9,858.5 1432.3000000000002,855.7 1433.8000000000002,851.5 1440.7,846.3"></polygon>
    <polygon fill="#cecece" points=" 1010.3,1246.1 1003.0999999999999,1255.3 997.8999999999999,1255.2 997.4999999999999,1250.9 1010.3,1246.1"></polygon>
    <polygon fill="#cecece" points=" 913.5,1314.7 922.1,1320.3 920.8000000000001,1323.5 911.3000000000001,1322.5 909.0000000000001,1317.9 913.5,1314.7"></polygon>
    <polygon fill="#cecece" points=" 2783,907 2803.9,882.4 2783,907 2783,907"></polygon>
    <polygon fill="#cecece" points=" 1493.7,672.9 1482,673.6999999999999 1480.3,670.4999999999999 1482.5,667.6999999999999 1493.7,672.9"></polygon>
    <polygon fill="#cecece" points=" 2343.2,1456.9 2356.6,1438.9 2343.2,1456.9"></polygon>
    <polygon fill="#cecece" points=" 1170.3,1254.1 1157.6,1252.1 1156.6,1247.8999999999999 1159.6999999999998,1246.3 1170.3,1254.1"></polygon>
    <polygon fill="#cecece" points=" 949.6,1300.9 935.3000000000001,1301.4 949.6,1300.9"></polygon>
    <polygon fill="#cecece" points=" 882.6,1740 886.8000000000001,1747.1 881.2,1751.3 876.1,1747 882.6,1740"></polygon>
    <polygon fill="#cecece" points=" 1489,822.9 1484,816.8 1489.2,810 1493.1000000000001,815.7 1489,822.9"></polygon>
    <polygon fill="#cecece" points=" 1492.1,662.8 1481.6999999999998,659.5999999999999 1485.3999999999999,653.9999999999999 1492.1,662.8"></polygon>
    <polygon fill="#cecece" points=" 1130.2,1364.7 1135.2,1357.5 1140.5,1357 1142.2,1360.2 1139.1000000000001,1364.5 1130.2,1364.7"></polygon>
    <polygon fill="#cecece" points=" 1547.1,100.7 1568.6999999999998,110.2 1567.6999999999998,112.7 1545.9999999999998,103.10000000000001 1547.1,100.7"></polygon>
    <polygon fill="#cecece" points=" 2811,871 2827.6,850.9 2812.9,872.5 2811,871"></polygon>
    <polygon fill="#cecece" points=" 1112.3,2045.6 1089.8,2035.3999999999999 1112.3,2045.6"></polygon>
    <polygon fill="#cecece" points=" 1721,2303 1697.6,2291.8 1721,2303 1721,2303"></polygon>
    <polygon fill="#cecece" points=" 1432.6,888.3 1441.1999999999998,884.3 1445.6,886.8 1443.6,890.4 1432.6,888.3"></polygon>
    <polygon fill="#cecece" points=" 1424.3,2177.9 1405.3999999999999,2169.7000000000003 1406.1999999999998,2167.8 1425.2999999999997,2175.7000000000003 1424.3,2177.9"></polygon>
    <polygon fill="#cecece" points=" 927.2,1966.9 907,1958.4 927.9,1965 927.2,1966.9"></polygon>
    <polygon fill="#cecece" points=" 887.3,1950.6 867.5999999999999,1941.6999999999998 868.4999999999999,1939.6 888.5999999999999,1947.6999999999998 887.3,1950.6"></polygon>
    <polygon fill="#cecece" points=" 1565.5,2238.3 1545.5,2229.7000000000003 1566.3,2236.4 1565.5,2238.3"></polygon>
    <polygon fill="#cecece" points=" 987.6,1992.6 974.4,1987.6999999999998 987.6,1992.6"></polygon>
    <polygon fill="#cecece" points=" 2735.1,967 2725.6,979.2 2735.1,967"></polygon>
    <polygon fill="#cecece" points=" 1281.5,1433.6 1277,1437.6 1274.3,1434.3999999999999 1277.8,1430.4999999999998 1281.5,1433.6"></polygon>
    <polygon fill="#cecece" points=" 1855.9,2122.1 1864.7,2109.1 1855.9,2122.1"></polygon>
    <polygon fill="#cecece" points=" 2231.1,386.8 2241.1,391 2231.1,386.8"></polygon>
    <polygon fill="#cecece" points=" 1577.5,1137.4 1581,1134.7 1585.1,1137 1578.8999999999999,1140 1577.5,1137.4"></polygon>
    <polygon fill="#cecece" points=" 1661.9,938 1654.2,942.8 1661.9,938"></polygon>
    <polygon fill="#cecece" points=" 2783,907 2780.5,912.3 2777,914.3 2783,907 2783,907"></polygon>
    <polygon fill="#cecece" points=" 953.4,1798.2 936.3,1770.7 907.6999999999999,1723.9 914.3,1711.3000000000002 922.8,1717.6000000000001 931.4,1728.4 938.9,1738 943.1,1747.7 955.6,1770.2 962.4,1780.8 966.3,1785.2 961.4,1796.8 953.4,1798.2"></polygon>
    <polygon fill="#cecece" points=" 1048.3,1303.8 1040.7,1297.1 1031.4,1307.1 1020.2,1304.1999999999998 1046.2,1266.1999999999998 1061,1271.2999999999997 1064.9,1280.7999999999997 1048.3,1303.8"></polygon>
    <polygon fill="#cecece" points=" 1009.1,1322.2 1013.4,1313.1000000000001 1021.1,1315.6000000000001 1009.1,1322.2"></polygon>
    <polygon fill="#cecece" points=" 1048.1,1309.1 1053.8999999999999,1320.1999999999998 1044.4999999999998,1315.4999999999998 1048.1,1309.1"></polygon>
    <polygon fill="#cecece" points=" 1643.8,734.7 1654.1,731.2 1669.3,735.2 1671.7,739.8000000000001 1668,742.2 1658.3,740.8000000000001 1643.8,734.7"></polygon>
    <polygon fill="#cecece" points=" 1287.3,1210.7 1276.7,1221.4 1269.8,1219.4 1268.3999999999999,1213.3000000000002 1282.1,1207.2000000000003 1287.3,1210.7"></polygon>
    <polygon fill="#cecece" points=" 1263.5,1193.4 1252.7,1207.9 1246.6000000000001,1202 1256.2,1191.2 1263.5,1193.4"></polygon>
    <polygon fill="#cecece" points=" 1163.3,1305 1184.2,1296.4 1191.7,1297.6000000000001 1205.6000000000001,1303.1000000000001 1221.9,1311.0000000000002 1222.5,1313.2000000000003 1217.3,1327.2000000000003 1197.5,1323.8000000000002 1163.3,1305"></polygon>
    <polygon fill="#cecece" points=" 1201.7,1290.5 1189,1286.5 1183.2,1280.9 1185.8,1273.2 1193.8,1273.9 1199,1276.7 1201.7,1290.5"></polygon>
    <polygon fill="#cecece" points=" 1281.3,1172.6 1292.6,1154.3 1298.3999999999999,1150.8 1306.3999999999999,1152.1 1306.3999999999999,1159 1289.1,1173.6 1281.3,1172.6"></polygon>
    <polygon fill="#cecece" points=" 1286.7,1149.9 1271.7,1150.9 1284.7,1145 1286.7,1149.9"></polygon>
    <polygon fill="#cecece" points=" 1265.9,1159.9 1271.5,1166.7 1268.6,1168.6000000000001 1265.9,1159.9"></polygon>
    <polygon fill="#cecece" points=" 1760.1,355.1 1742.8,357.3 1746.3,350 1760.1,355.1"></polygon>
    <polygon fill="#cecece" points=" 1364.7,1309.2 1348.9,1294.6000000000001 1364.1000000000001,1288.0000000000002 1373.9,1291.7000000000003 1364.7,1309.2"></polygon>
    <polygon fill="#cecece" points=" 1384.8,1247.6 1388.5,1250.8999999999999 1385.3,1250.6 1384.8,1247.6"></polygon>
  </g>
</g>
</svg>
