<?xml version="1.0" encoding="utf-8"?>
<!-- Generator: Adobe Illustrator 20.1.0, SVG Export Plug-In . SVG Version: 6.00 Build 0)  -->
<svg version="1.1" id="_x31_753" xmlns="http://www.w3.org/2000/svg" xmlns:xlink="http://www.w3.org/1999/xlink" x="0px" y="0px"
	 viewBox="0 0 2399 2631" enable-background="new 0 0 2399 2631" xml:space="preserve">
<path fill="#00B65C" d="M914.6,1729.7l-9-4.8c-0.2-0.1-0.3-0.3-0.2-0.5l11.8-22.1c0.1-0.2,0.3-0.3,0.5-0.2l9,4.8
	c0.2,0.1,0.3,0.3,0.2,0.5l-11.8,22.1C915,1729.7,914.8,1729.8,914.6,1729.7z"/>
<path fill="#00B65C" d="M902.4,1754l-9.4-5c-0.3-0.2-0.4-0.5-0.2-0.8l5-9.4c0.2-0.3,0.5-0.4,0.8-0.2l9.4,5c0.3,0.2,0.4,0.5,0.2,0.8
	l-5,9.4C903.1,1754,902.7,1754.1,902.4,1754z"/>
</svg>
