<svg id="4956fef7-50c1-4807-a383-93bb5d64f22a" data-name="1835" xmlns="http://www.w3.org/2000/svg" viewBox="0 0 93.65033 145.34399">
  <defs>
    <style>
      .bd6f5cef-3ca3-41e9-9052-08369753791c {
        fill: #00c3f3;
      }
    </style>
  </defs>
  <title>1835_disappeared-NEW</title>
  <path class="bd6f5cef-3ca3-41e9-9052-08369753791c" d="M959.5321,1572.82074a.29517.29517,0,0,0-.39917.12207l-9.55481,17.97,8.13312,4.3244,9.69336-18.23053Z" transform="translate(-885.02808 -1572.78614)"/>
  <path class="bd6f5cef-3ca3-41e9-9052-08369753791c" d="M943.40308,1603.41882a.149.149,0,0,0-.20154.06165l-9.50684,17.8797,7.91742,4.20978,9.57684-18.01129Z" transform="translate(-885.02808 -1572.78614)"/>
  <path class="bd6f5cef-3ca3-41e9-9052-08369753791c" d="M927.17035,1634.584a.15887.15887,0,0,0-.2149.06567l-9.59406,18.04382,7.71722,4.10327,9.66864-18.18408Z" transform="translate(-885.02808 -1572.78614)"/>
  <path class="bd6f5cef-3ca3-41e9-9052-08369753791c" d="M894.78448,1696.111a.20347.20347,0,0,0-.27515.08411l-9.48126,17.83173,7.71722,4.10327,9.57678-18.01129Z" transform="translate(-885.02808 -1572.78614)"/>
  <path class="bd6f5cef-3ca3-41e9-9052-08369753791c" d="M970.95947,1603.45868a.13061.13061,0,0,0-.17853.04785l-4.4,7.621,7.83209,4.52185,4.46539-7.73425Z" transform="translate(-885.02808 -1572.78614)"/>
  <path class="bd6f5cef-3ca3-41e9-9052-08369753791c" d="M907.34216,1609.23712a.14645.14645,0,0,0-.19806.06055l-5.12195,9.63294,9.38672,4.991,5.19067-9.76227Z" transform="translate(-885.02808 -1572.78614)"/>
  <polygon class="bd6f5cef-3ca3-41e9-9052-08369753791c" points="54.25 58.178 55.333 56.139 41.249 48.651 37.352 55.98 51.436 63.469 52.407 61.643 54.571 62.793 56.413 59.328 54.25 58.178"/>
  <polygon class="bd6f5cef-3ca3-41e9-9052-08369753791c" points="38.077 89.032 39.363 86.613 25.279 79.125 20.841 87.471 34.925 94.959 36.235 92.496 38.321 93.605 40.163 90.141 38.077 89.032"/>
  <polygon class="bd6f5cef-3ca3-41e9-9052-08369753791c" points="22.057 119.951 23.471 117.291 8.931 109.56 4.591 117.721 19.132 125.452 20.215 123.415 22.571 124.668 24.413 121.203 22.057 119.951"/>
  <path class="bd6f5cef-3ca3-41e9-9052-08369753791c" d="M891.8432,1638.98767a.14753.14753,0,0,0-.19958.061l-6.23785,11.73163,9.38666,4.991,6.30713-11.862Z" transform="translate(-885.02808 -1572.78614)"/>
</svg>
