<?xml version="1.0" encoding="utf-8"?>
<!-- Generator: Adobe Illustrator 20.1.0, SVG Export Plug-In . SVG Version: 6.00 Build 0)  -->
<svg version="1.1" xmlns="http://www.w3.org/2000/svg" xmlns:xlink="http://www.w3.org/1999/xlink" x="0px" y="0px"
     viewBox="0 0 2399 2631" style="enable-background:new 0 0 2399 2631;" xml:space="preserve">
<style type="text/css">
    .st0{display:none;}
    .st1{display:inline;fill:none;stroke:#14A3E8;stroke-width:2;stroke-miterlimit:10;}
    .st2{display:inline;}
    .st3{fill:#00B65C;}
    .st4{fill:#00C3F3;}
    .st5{display:inline;fill:#7B1517;}
    .st6{display:inline;fill:#EC8A43;}
    .st7{display:inline;fill:#E5E161;}
    .st8{display:inline;fill:#9657A0;}
</style>
<g id="_x31_894_x5F_Cooper_x5F_Robertson_x5F_FrameworkPlanGeo1_xA0_Image_1_" class="st0">
    
        <image style="display:inline;overflow:visible;" width="2399" height="2631" id="_x31_894_x5F_Cooper_x5F_Robertson_x5F_FrameworkPlanGeo1_xA0_Image" xlink:href="43395D5D8D9515D6.jpg" >
    </image>
</g>
<g id="Layer_2" class="st0">
    <polygon class="st1" points="1035.8,0.7 2401.9,756.8 1363.8,2632 -0.3,1876.9     "/>
</g>
<g id="_x31_753" class="st0">
    <g class="st2">
        <g>
            <path class="st3" d="M917.4,1701.9l-12.1,22.8l9.7,5.2l12.1-22.8L917.4,1701.9z M892.8,1747.9l10.5,5.6l5.5-10.4l-10.5-5.6
                L892.8,1747.9z"/>
        </g>
    </g>
</g>
<g id="_x31_835">
    <path class="st4" d="M957.1,1594.9l-6.9-3.6c-0.4-0.2-0.5-0.6-0.3-1l9-17c0.2-0.4,0.6-0.5,1-0.3l6.9,3.6c0.4,0.2,0.5,0.6,0.3,1
        l-9,17C957.9,1595,957.4,1595.1,957.1,1594.9z"/>
    <path class="st4" d="M941.8,1625.3l9.3-17.5c0.1-0.1,0-0.3-0.1-0.4l-7.4-3.9c-0.1-0.1-0.3,0-0.4,0.1l-9.3,17.5
        c-0.1,0.1,0,0.3,0.1,0.4l7.4,3.9C941.5,1625.5,941.7,1625.4,941.8,1625.3z"/>
    <path class="st4" d="M925.3,1656.3l9.2-17.3c0.1-0.3,0-0.6-0.2-0.7l-6.8-3.6c-0.3-0.1-0.6,0-0.7,0.2l-9.2,17.3
        c-0.1,0.3,0,0.6,0.2,0.7l6.8,3.6C924.9,1656.7,925.2,1656.6,925.3,1656.3z"/>
    <path class="st4" d="M893.1,1717.4l8.8-16.6c0.2-0.4,0.1-0.9-0.3-1.1l-6.3-3.4c-0.4-0.2-0.9-0.1-1.1,0.3l-8.8,16.6
        c-0.2,0.4-0.1,0.9,0.3,1.1l6.3,3.4C892.4,1718,892.9,1717.8,893.1,1717.4z"/>
    <path class="st4" d="M970.6,1603.8l-4,6.9c-0.1,0.2-0.1,0.5,0.2,0.7l7,4c0.2,0.1,0.5,0.1,0.7-0.2l4-6.9c0.1-0.2,0.1-0.5-0.2-0.7
        l-7-4C971,1603.5,970.7,1603.6,970.6,1603.8z"/>
    <path class="st4" d="M907,1609.5l-4.8,9c-0.1,0.2,0,0.5,0.2,0.6l8.7,4.6c0.2,0.1,0.5,0,0.6-0.2l4.8-9c0.1-0.2,0-0.5-0.2-0.6
        l-8.7-4.6C907.4,1609.3,907.1,1609.3,907,1609.5z"/>
    <path class="st4" d="M941.4,1632.1l-1.8,3.5l-2.2-1.2l-1,1.8l-14.1-7.5l3.9-7.3l14.1,7.5l-1.1,2L941.4,1632.1z"/>
    <path class="st4" d="M923.3,1666.4l-2.1-1.1l-1.3,2.5l-14.1-7.5l4.4-8.3l14.1,7.5l-1.3,2.4l2.1,1.1L923.3,1666.4z"/>
    <path class="st4" d="M909.4,1694l-1.8,3.5l-2.4-1.3l-1.1,2l-14.5-7.7l4.3-8.2l14.5,7.7l-1.4,2.7L909.4,1694z"/>
    <path class="st4" d="M891.7,1639l-6.3,11.8c0,0,0,0.1,0,0.1l9.3,4.9c0,0,0.1,0,0.1,0l6.3-11.8c0,0,0-0.1,0-0.1L891.7,1639
        C891.7,1638.9,891.7,1638.9,891.7,1639z"/>
</g>
<g id="_x31_850" class="st0">
    
        <rect x="886.6" y="1665.4" transform="matrix(0.8829 0.4695 -0.4695 0.8829 889.5689 -223.2779)" class="st5" width="11.9" height="13.8"/>
    <polygon class="st5" points="927.3,1564.2 929.6,1559.8 926.9,1558.4 928.7,1555.1 914.8,1547.6 904.8,1566.6 918.7,1574 
        920.3,1571.1 922.9,1572.5 925.2,1568.1 922.6,1566.7 924.6,1562.8     "/>
</g>
<g id="_x31_894" class="st0">
    <polygon class="st6" points="990.5,1483 990.5,1483 957.7,1465.5 957.7,1465.5 957.4,1465.4 924,1528.2 931.1,1531.9 960.8,1475.9 
        980,1486.2 950.3,1542 957.4,1545.8 990.7,1483.1     "/>
    
        <rect x="877" y="1494.5" transform="matrix(0.8829 0.4695 -0.4695 0.8829 808.6715 -242.1669)" class="st6" width="26" height="12.3"/>
    
        <rect x="1104.9" y="1408" transform="matrix(0.8829 0.4695 -0.4695 0.8829 794.568 -359.5019)" class="st6" width="26.7" height="11.3"/>
    <polygon class="st6" points="1134.5,1332.8 1107.5,1329.7 1106.1,1342.7 1106.2,1342.7 1104.8,1355.2 1119.7,1356.8 1121.1,1344.4 
        1133,1345.7     "/>
    
        <rect x="1100.8" y="1362.2" transform="matrix(0.9734 0.2293 -0.2293 0.9734 344.4614 -217.5356)" class="st6" width="15" height="22.4"/>
    <polygon class="st6" points="1152.8,1376.7 1153.7,1373.3 1140.7,1370.2 1140,1373.1 1140,1373 1139.7,1373.9 1129.4,1371.6 
        1126.7,1383.7 1136.3,1385.9 1134.5,1392.3 1148.7,1396.4 1154.2,1377.1     "/>
    
        <rect x="839.2" y="1574.7" transform="matrix(0.8829 0.4695 -0.4695 0.8829 841.4636 -210.7896)" class="st6" width="8.5" height="14.8"/>
    
        <rect x="822.5" y="1596.8" transform="matrix(0.8829 0.4695 -0.4695 0.8829 849.843 -200.3497)" class="st6" width="8.4" height="14.6"/>
    <polygon class="st6" points="863.8,1615.5 863.8,1615.4 844.8,1605.3 840.9,1612.7 853.3,1619.2 845.2,1634.4 852,1638.1 
        864,1615.6     "/>
    <polygon class="st6" points="907.8,1535.4 895.3,1528.7 895.3,1528.7 889.2,1525.5 884.4,1534.4 890.5,1537.6 891.7,1535.4 
        897,1538.3 887.8,1555.5 895,1559.4 904.2,1542.1 904.2,1542.1     "/>
    
        <rect x="940.3" y="1528.3" transform="matrix(0.8829 0.4695 -0.4695 0.8829 829.4289 -263.7033)" class="st6" width="6.5" height="6.4"/>
    <polygon class="st6" points="1024.1,1534.2 1017.9,1530.8 1000.9,1561.5 996.4,1559 998.3,1555.4 987.4,1549.3 985.4,1552.9 
        980.9,1550.4 997.9,1519.7 991.8,1516.3 971.4,1553.1 971.4,1553.1 971.3,1553.2 1003.7,1571.1 1007.1,1564.9 1007.1,1564.9     "/>
</g>
<g id="_x31_912" class="st0">
    
        <rect x="650.6" y="2107" transform="matrix(0.326 0.9454 -0.9454 0.326 2445.9136 801.8397)" class="st7" width="20" height="18.3"/>
    <polygon class="st7" points="1080.2,1133.2 1081,1149.2 1034.1,1151.3 1028.8,1141.1 1033.8,1141.1 1032,1135     "/>
</g>
<g id="_x31_940" class="st0">
    
        <rect x="1176.7" y="1036.8" transform="matrix(-0.9768 -0.2143 0.2143 -0.9768 2120.9873 2317.0598)" class="st8" width="18.8" height="13.5"/>
    <polygon class="st8" points="845.7,1673.1 837.6,1669 839,1666.2 821.8,1657.5 819.9,1661.2 808.6,1655.5 801.1,1670.1 
        829.3,1684.4 835,1673.4 843.3,1677.6     "/>
</g>
</svg>

