<?xml version="1.0" encoding="utf-8"?>
<!-- Generator: Adobe Illustrator 20.1.0, SVG Export Plug-In . SVG Version: 6.00 Build 0)  -->
<svg version="1.1" id="_x31_850" xmlns="http://www.w3.org/2000/svg" xmlns:xlink="http://www.w3.org/1999/xlink" x="0px" y="0px"
	 viewBox="0 0 2399 2631" enable-background="new 0 0 2399 2631" xml:space="preserve">
<path fill="#7B1517" d="M894.2,1681l-9.8-5.2c-0.2-0.1-0.3-0.3-0.2-0.5l6.1-11.5c0.1-0.2,0.3-0.3,0.5-0.2l9.8,5.2
	c0.2,0.1,0.3,0.3,0.2,0.5l-6.1,11.5C894.7,1681,894.4,1681.1,894.2,1681z"/>
<path fill="#7B1517" d="M924.6,1562.8l-2.1,3.9l2.7,1.4l-2.3,4.4l-2.7-1.4l-1.6,3l-13.9-7.5l10-18.9l13.9,7.5l-1.7,3.3l2.7,1.4
	l-2.3,4.4L924.6,1562.8z"/>
</svg>
