<?xml version="1.0" encoding="utf-8"?>
<!-- Generator: Adobe Illustrator 20.1.0, SVG Export Plug-In . SVG Version: 6.00 Build 0)  -->
<svg version="1.1" xmlns="http://www.w3.org/2000/svg" xmlns:xlink="http://www.w3.org/1999/xlink" x="0px" y="0px"
	 viewBox="0 0 2399 2631" enable-background="new 0 0 2399 2631" xml:space="preserve">
<g id="_x31_894_x5F_Cooper_x5F_Robertson_x5F_FrameworkPlanGeo1_xA0_Image_1_" display="none">
	
		<image display="inline" overflow="visible" width="2399" height="2631" id="_x31_894_x5F_Cooper_x5F_Robertson_x5F_FrameworkPlanGeo1_xA0_Image" xlink:href="655C58470F434E13.jpg" >
	</image>
</g>
<g id="Layer_2" display="none">
	<polygon display="inline" fill="none" stroke="#14A3E8" stroke-width="2" stroke-miterlimit="10" points="1035.8,0.7 2401.9,756.8 
		1363.8,2632 -0.3,1876.9 	"/>
</g>
<g id="_x31_753" display="none">
	<g display="inline">
		<g>
			<path fill="#00B65C" d="M917.4,1701.9l-12.1,22.8l9.7,5.2l12.1-22.8L917.4,1701.9z M892.8,1747.9l10.5,5.6l5.5-10.4l-10.5-5.6
				L892.8,1747.9z"/>
		</g>
	</g>
</g>
<g id="_x31_835" display="none">
	
		<rect x="953.9" y="1573.6" transform="matrix(0.8829 0.4695 -0.4695 0.8829 855.8177 -264.5781)" display="inline" fill="#00C3F3" width="9.2" height="20.6"/>
	
		<rect x="938" y="1604.3" transform="matrix(0.8829 0.4695 -0.4695 0.8829 868.2579 -253.4733)" display="inline" fill="#00C3F3" width="9" height="20.4"/>
	
		<rect x="921.7" y="1635.4" transform="matrix(0.8829 0.4695 -0.4695 0.8829 880.9843 -242.1285)" display="inline" fill="#00C3F3" width="8.7" height="20.6"/>
	
		<rect x="889.3" y="1696.9" transform="matrix(0.8829 0.4695 -0.4695 0.8829 906.029 -219.738)" display="inline" fill="#00C3F3" width="8.7" height="20.4"/>
	
		<rect x="968" y="1605.1" transform="matrix(-0.866 -0.5 0.5 -0.866 1010.0044 3489.6726)" display="inline" fill="#00C3F3" width="9" height="8.9"/>
	
		<rect x="921.9" y="1662.1" transform="matrix(-0.8829 -0.4695 0.4695 -0.8829 957.05 3566.7712)" display="inline" fill="#00C3F3" width="2.5" height="3.9"/>
	
		<rect x="904" y="1611" transform="matrix(-0.8829 -0.4695 0.4695 -0.8829 953.2629 3470.7651)" display="inline" fill="#00C3F3" width="10.6" height="11.1"/>
	<polygon display="inline" fill="#00C3F3" points="941.4,1632.1 939.3,1631 940.4,1628.9 926.3,1621.4 922.4,1628.8 936.5,1636.3 
		937.4,1634.4 939.6,1635.6 	"/>
	
		<rect x="907.2" y="1655.1" transform="matrix(-0.8829 -0.4695 0.4695 -0.8829 943.9005 3554.9971)" display="inline" fill="#00C3F3" width="16" height="9.5"/>
	<polygon display="inline" fill="#00C3F3" points="909.4,1694 907.1,1692.7 908.5,1690.1 894,1682.3 889.6,1690.5 904.2,1698.2 
		905.2,1696.2 907.6,1697.5 	"/>
	
		<rect x="887.9" y="1640.6" transform="matrix(-0.8829 -0.4695 0.4695 -0.8829 908.5665 3521.2207)" display="inline" fill="#00C3F3" width="10.6" height="13.4"/>
</g>
<g id="_x31_850" display="none">
	
		<rect x="886.6" y="1665.4" transform="matrix(0.8829 0.4695 -0.4695 0.8829 889.5689 -223.2779)" display="inline" fill="#7B1517" width="11.9" height="13.8"/>
	<polygon display="inline" fill="#7B1517" points="927.3,1564.2 929.6,1559.8 926.9,1558.4 928.7,1555.1 914.8,1547.6 904.8,1566.6 
		918.7,1574 920.3,1571.1 922.9,1572.5 925.2,1568.1 922.6,1566.7 924.6,1562.8 	"/>
</g>
<g id="_x31_894">
	<path fill="#EC8A43" d="M990.7,1483.1l-33.3,62.7l-7.1-3.8l29.7-55.9l-19.2-10.2l-29.8,56l-7.1-3.8l33.4-62.8l0.3,0.2l0,0
		l32.8,17.4l0,0L990.7,1483.1z"/>
	<path fill="#EC8A43" d="M898.3,1512l-22.3-11.9c-0.2-0.1-0.2-0.3-0.1-0.5l5.4-10.2c0.1-0.2,0.3-0.2,0.5-0.1l22.3,11.9
		c0.2,0.1,0.2,0.3,0.1,0.5l-5.4,10.2C898.6,1512,898.4,1512.1,898.3,1512z"/>
	<path fill="#EC8A43" d="M1127.3,1424.9l-23.5-12.5c0,0,0,0,0-0.1l5.3-9.9c0,0,0,0,0.1,0l23.5,12.5c0,0,0,0,0,0.1L1127.3,1424.9
		C1127.4,1424.9,1127.4,1424.9,1127.3,1424.9z"/>
	<path fill="#EC8A43" d="M1133,1345.7l-11.9-1.3l-1.4,12.4l-15-1.7l1.4-12.4l-0.1,0l1.5-13l26.9,3L1133,1345.7z"/>
	<path fill="#EC8A43" d="M1112.9,1386l-14.3-3.4c-0.1,0-0.1-0.1-0.1-0.2l5.1-21.6c0-0.1,0.1-0.1,0.2-0.1l14.3,3.4
		c0.1,0,0.1,0.1,0.1,0.2l-5.1,21.6C1113,1386,1112.9,1386,1112.9,1386z"/>
	<path fill="#EC8A43" d="M1154.2,1377.1l-5.5,19.3l-14.2-4l1.8-6.4l-9.7-2.2l2.7-12.1l10.3,2.3l0.2-0.9l0,0l0.7-2.8l13,3.1l-0.8,3.4
		L1154.2,1377.1z"/>
	<path fill="#EC8A43" d="M843.5,1590.5l-7.1-3.8c-0.1-0.1-0.2-0.2-0.1-0.3l6.7-12.6c0.1-0.1,0.2-0.2,0.3-0.1l7.1,3.8
		c0.1,0.1,0.2,0.2,0.1,0.3l-6.7,12.6C843.8,1590.5,843.6,1590.5,843.5,1590.5z"/>
	<path fill="#EC8A43" d="M826.7,1612.4l-6.9-3.6c-0.2-0.1-0.2-0.3-0.1-0.5l6.5-12.3c0.1-0.2,0.3-0.2,0.5-0.1l6.9,3.6
		c0.2,0.1,0.2,0.3,0.1,0.5l-6.5,12.3C827.1,1612.4,826.9,1612.5,826.7,1612.4z"/>
	<path fill="#EC8A43" d="M864,1615.6l-12,22.5l-6.9-3.6l8.1-15.2l-12.4-6.6l3.9-7.4l19.1,10.1l0,0L864,1615.6z"/>
	<path fill="#EC8A43" d="M904.2,1542.1L904.2,1542.1l-9.2,17.3l-7.2-3.8l9.2-17.3l-5.4-2.8l-1.2,2.2l-6.1-3.2l4.8-9l6.1,3.2l0,0
		l12.6,6.7L904.2,1542.1z"/>
	<path fill="#EC8A43" d="M944.8,1535.7l-5.4-2.9c-0.1,0-0.1-0.1-0.1-0.2l2.8-5.4c0-0.1,0.1-0.1,0.2-0.1l5.4,2.9
		c0.1,0,0.1,0.1,0.1,0.2l-2.8,5.4C944.9,1535.7,944.8,1535.8,944.8,1535.7z"/>
	<path fill="#EC8A43" d="M1007.1,1564.9L1007.1,1564.9l-3.4,6.2l-32.3-17.9l0.1-0.1l0,0l20.4-36.8l6.2,3.4l-17,30.7l4.5,2.5l2-3.6
		l11,6.1l-2,3.6l4.5,2.5l17-30.7l6.2,3.4L1007.1,1564.9z"/>
</g>
<g id="_x31_912" display="none">
	
		<rect x="650.6" y="2107" transform="matrix(0.326 0.9454 -0.9454 0.326 2445.9136 801.8397)" display="inline" fill="#E5E161" width="20" height="18.3"/>
	<polygon display="inline" fill="#E5E161" points="1080.2,1133.2 1081,1149.2 1034.1,1151.3 1028.8,1141.1 1033.8,1141.1 1032,1135 
			"/>
</g>
<g id="_x31_940" display="none">
	
		<rect x="1176.7" y="1036.8" transform="matrix(-0.9768 -0.2143 0.2143 -0.9768 2120.9873 2317.0598)" display="inline" fill="#9657A0" width="18.8" height="13.5"/>
	<polygon display="inline" fill="#9657A0" points="845.7,1673.1 837.6,1669 839,1666.2 821.8,1657.5 819.9,1661.2 808.6,1655.5 
		801.1,1670.1 829.3,1684.4 835,1673.4 843.3,1677.6 	"/>
</g>
</svg>
