<svg id="d45731f6-1ac3-4195-a7ad-417b4108c4f1" data-name="1894" xmlns="http://www.w3.org/2000/svg" viewBox="0 0 334.64355 308.30682">
  <defs>
    <style>
      .\34 264b5b5-fd73-4716-8e55-937ab1190b9e {
        fill: #ec8a43;
      }
    </style>
  </defs>
  <title>1894_disappeared-NEW</title>
  <polygon class="4264b5b5-fd73-4716-8e55-937ab1190b9e" points="170.938 153.23 170.941 153.225 138.157 135.793 138.157 135.793 137.863 135.637 104.48 198.42 111.544 202.176 141.309 146.196 160.506 156.403 130.788 212.294 137.852 216.05 171.184 153.361 170.938 153.23"/>
  <path class="4264b5b5-fd73-4716-8e55-937ab1190b9e" d="M881.69727,1489.25452a.3614.3614,0,0,0-.48871.14935l-5.604,10.53967,22.9682,12.2124,5.77368-10.8587Z" transform="translate(-819.53656 -1329.74933)"/>
  <path class="4264b5b5-fd73-4716-8e55-937ab1190b9e" d="M1109.40875,1402.59052a.38193.38193,0,0,0-.51654.158l-5.1189,9.62726,23.60822,12.55273,5.29822-9.96454Z" transform="translate(-819.53656 -1329.74933)"/>
  <polygon class="4264b5b5-fd73-4716-8e55-937ab1190b9e" points="288.005 0 286.547 12.953 286.648 12.965 285.247 25.403 300.203 27.087 301.603 14.649 313.456 15.983 314.914 3.03 288.005 0"/>
  <path class="4264b5b5-fd73-4716-8e55-937ab1190b9e" d="M1103.8609,1360.86285a.33008.33008,0,0,0-.39691.24561l-5.062,21.48694,14.57934,3.43463,5.13764-21.80817Z" transform="translate(-819.53656 -1329.74933)"/>
  <polygon class="4264b5b5-fd73-4716-8e55-937ab1190b9e" points="333.311 46.948 334.118 43.524 321.137 40.466 320.469 43.304 320.445 43.297 320.198 44.17 309.881 41.843 307.149 53.956 316.803 56.134 314.975 62.576 329.173 66.605 334.644 47.327 333.311 46.948"/>
  <path class="4264b5b5-fd73-4716-8e55-937ab1190b9e" d="M843.36328,1573.649a.21751.21751,0,0,0-.29419.08991l-6.842,12.86792,7.49719,3.98633,6.94409-13.06Z" transform="translate(-819.53656 -1329.74933)"/>
  <path class="4264b5b5-fd73-4716-8e55-937ab1190b9e" d="M826.68127,1595.79663a.31108.31108,0,0,0-.42072.1286l-6.724,12.64606,7.45941,3.96625,6.87006-12.92072Z" transform="translate(-819.53656 -1329.74933)"/>
  <polygon class="4264b5b5-fd73-4716-8e55-937ab1190b9e" points="44.288 285.72 44.311 285.677 25.26 275.548 21.347 282.905 33.715 289.481 25.645 304.66 32.504 308.307 44.464 285.814 44.288 285.72"/>
  <polygon class="4264b5b5-fd73-4716-8e55-937ab1190b9e" points="75.722 198.943 75.727 198.933 69.668 195.711 64.908 204.663 70.967 207.885 72.142 205.675 77.495 208.522 68.311 225.794 75.501 229.617 84.685 212.344 84.706 212.356 88.285 205.624 75.722 198.943"/>
  <path class="4264b5b5-fd73-4716-8e55-937ab1190b9e" d="M942.41064,1527.26923a.256.256,0,0,0-.34613.10577l-2.87067,5.399,5.70789,3.03491,2.99078-5.62494Z" transform="translate(-819.53656 -1329.74933)"/>
  <polygon class="4264b5b5-fd73-4716-8e55-937ab1190b9e" points="204.531 204.477 198.349 201.05 181.349 231.719 176.83 229.215 178.8 225.661 167.846 219.59 165.877 223.143 161.397 220.661 178.406 189.977 172.224 186.55 151.842 223.321 151.842 223.321 151.789 223.417 184.132 241.343 187.559 235.161 187.531 235.145 204.531 204.477"/>
</svg>
