<svg id="_1911" data-name="1911" xmlns="http://www.w3.org/2000/svg" viewBox="0 0 335.41667 621.33206"><defs><style>.cls-1{fill:#900;}</style></defs><title>1911-disappeared</title><path class="cls-1" d="M1117.08333,1105.16667a2.35679,2.35679,0,0,1,2.83333-1.41667,1.60414,1.60414,0,0,1,1.41667,1.91667L1122.5,1106l-.25,1.66667,3.41667.66667.66667-2.83333,1.91667.41667.33333-.58333a2.16459,2.16459,0,0,1,3.41667.58333l.08333.83333.75.41667-2.66667,10.5-6.08333-1.41667.58333-2.91667-4.25-.91667-.66667,2.75-4.83333-1.25Z" transform="translate(-812.91667 -1103.67978)"/><path class="cls-1" d="M1121.83333,1148.33333,1119,1162l-21.5-4.66667.83333-4.16667,2.83333.5,2-9.5,6.66667,1.33333-.66667,4.16667,3.33333.66667.83333-4Z" transform="translate(-812.91667 -1103.67978)"/><path class="cls-1" d="M1129.33333,1335.16667l-1,4.83333,1.33333.66667-1,4.33333-1.66667.16667-1.33333,5.66667-17-3.5,3.5-15.66667Z" transform="translate(-812.91667 -1103.67978)"/><path class="cls-1" d="M1133.83333,1355.16667l-2.5,12.33333-8.33333-2-3.5,15.83333s1,3-2,2.5l-14.83333-3.5s-1.33333.83333-1.83333-1c0,0,0-1.83333,1.66667-1.66667l.875-4.41667a3.37254,3.37254,0,0,1,1.45833-6.58333L1106,1359.83333s-1.95833-.54167-.625-2.70833c0,0,2-1.625,2.58333.25l3.83333.66667.875-3.70833-.83333-.16667,1-4.83333,3.5.66667v1.66667Z" transform="translate(-812.91667 -1103.67978)"/><path class="cls-1" d="M1100.66667,1431.16667,1112.5,1437.5l-9.16667,16.66667L1091.5,1447.5l2.66667-5-1.66667-1.33333,3.5-6.33333L1098,1436Z" transform="translate(-812.91667 -1103.67978)"/><path class="cls-1" d="M1089,1450.875l7.875,4.25-.75,2,5.25,2.875-2.5,4.625-1.5-.875-.75,1.875-1.5-.75-2.25,4.125,1.375.875-1.375,2.5,1.625.625-2.375,4.875-5.25-3.375-.75,1.25-7.5-4.25,2.75-5.75-1.375-.875,1.375-2.375.625.5,1.75-3.25-.625-.75,2-2.875,1.125.5Z" transform="translate(-812.91667 -1103.67978)"/><path class="cls-1" d="M1086.125,1494.875H1087l3-4.875,34.875,19.75L1119.5,1519l-5.25-2.875.625-1.375-24.625-13.625-.875.875-5.375-3.375Z" transform="translate(-812.91667 -1103.67978)"/><path class="cls-1" d="M907,1495l-8,15-24.16667-13.83333L882.875,1481.625l1,.5.625-.5,1.375.875-.125.625,3.125,2,.625-.56249,1.4375.875-.1875.68749,3.5,2,.75-.56249,1.25.81249-.125.75,3.625,2,.5625-.5,1.1875.75v.875l3.625,1.875.6875-.56249.9375.56249Z" transform="translate(-812.91667 -1103.67978)"/><path class="cls-1" d="M899.25,1535.75,893.5,1547l-3.25-1.5-4.75,9.5-8-4.75,5-9.5-6.33333-3.58333L882,1526.25Z" transform="translate(-812.91667 -1103.67978)"/><path class="cls-1" d="M847.66667,1523.83333,836.16667,1545l-4.5-2.33333.66667-1.33333-1.66667-.83333-.83333,1.16667L825,1539l11.66667-21.33333,4.83333,2.5-.83333,1.33333,1.66667,1.16667,1-1.5Z" transform="translate(-812.91667 -1103.67978)"/><path class="cls-1" d="M856.66667,1537.16667l15,8.16667-1.5,3.16667,2.33333,1.33333L871.16667,1552.5l-3.33333-1.83333.66667-1.33333-1.83333-1-5.33333,9.83333-6.16667-3.5L853.83333,1557,851,1555.375l1.125-2.375L849,1551Z" transform="translate(-812.91667 -1103.67978)"/><path class="cls-1" d="M915.75,1580.125l1.375.875-2.25,4.375,3.5,1.875-3.125,6-3.375-2-2.375,4-11.5-6,2.5-4.625c-2.75-1.625-1.5-4.75-1.5-4.75,1.375-3.25,5.125-2.125,5.125-2.125l2.875-4.875,9.625,5.5Z" transform="translate(-812.91667 -1103.67978)"/><path class="cls-1" d="M862.375,1570.25,850.5,1592.125,842.25,1588l1.75-3.875-1.625-1.625L848,1572.125l1.875.875,4.125-7.625Z" transform="translate(-812.91667 -1103.67978)"/><path class="cls-1" d="M856.125,1613c4.625,1.5,3.625,6.375,3.625,6.375l-11.5,19.875L835.125,1632l4.25-7.625,5.375,3,4.375-8.625-5.375-2.875,4-7.625Z" transform="translate(-812.91667 -1103.67978)"/><path class="cls-1" d="M826.16667,1598.5l1.58333-2.66667,5.91667,3.08333-3,5.41667,2.16667-.16667.33333,3.41667-1.41667.25,2.08333,1.58333-4.83333,8.75-9.16667-5.08333-1,1.5-5.91667-3.41667,1.91667-3.41667,1,.66667L819.25,1602.25l-1.25-.83333,3.33333-5.91667Z" transform="translate(-812.91667 -1103.67978)"/><path class="cls-1" d="M987.875,1521.875l8.125,5-10.625,19.875,2.375,1.375s1.625-2.75,4-1.25c0,0,2,1.125.75,3.625l1.375.75,1.375-2.5,3.875,2.25-1.375,2.625,3.5,1.875,11.125-20.5,8.5,4.75L1005.25,1569l-9.25-4.875,1-1.875-3.125-1.75-1.125,1.75-3.375-2,1-1.75-9.375-5-1.125,2.125-8.625-5.125Z" transform="translate(-812.91667 -1103.67978)"/><path class="cls-1" d="M1098.25,1387.375l10.5,5.75,1.25-2,5.25,3.125-.875,1.625,6,3.5-6.75,11.25-3-1.625-2.75,4-3-2.125-1.875,3.5-3.5-1.875,1.75-3.25-3.625-2.5,1.875-3.5-4.875-3.125,4.25-7.375-3-1.625Z" transform="translate(-812.91667 -1103.67978)"/><path class="cls-1" d="M919.5,1692.5l9.5,5.25-9.75,17.5s3.25,7.75-5.5,9.75a7.22541,7.22541,0,0,1-7.25-5l-8.75-5.25L903.5,1704l7.5,4.25Z" transform="translate(-812.91667 -1103.67978)"/><path class="cls-1" d="M1125.91667,1376.91667,1134.5,1379v1.58333l1.25-.08333.16667-1.08333,1,.25,1.33333-6s-1.66667-.25-1.16667-2.33333c0,0,.33333-1.91667,2.91667-1.5,0,0,3.08333-1.33333,4.33333,1.16667a2.04691,2.04691,0,0,1,2.25,1.91667s0,2.58333-1.91667,2.5l-.58333,3,4.16667,1.25-.25,2.75.33333.25-2,8.5L1139.75,1389.75l-.75,2.5a1.0805,1.0805,0,0,1,.83333,1.41667l1.04167.45833s.4375,3.0625-1.70833,2.04167c0,0-.08333.66667-1.25.5l-1.5-.41667s-.08333,1.08333-1.66667.75a1.081,1.081,0,0,1-.83333-1.33333s-2.41667-.33333-1.91667-1.5c0,0-1.58333.16667-1.08333-1.91667l.91667-4.25.08333-2.5,2-1.16667.16667-1.33333-.58333.08333-.75,1.16667-8.08333-2Z" transform="translate(-812.91667 -1103.67978)"/></svg>