<svg id="_2010" data-name="2010" xmlns="http://www.w3.org/2000/svg" viewBox="0 0 135.05825 207.92718"><defs><style>.cls-1{fill:#000bff;}</style></defs><title>2010-disappeared</title><path class="cls-1" d="M1036.644,1105.80906l34.62783-3.23624,1.94175,22.3301-35.27508,2.91262Z" transform="translate(-1015.60841 -1102.57282)"/><path class="cls-1" d="M1015.60841,1107.92718l13.26861-.97087v8.88511h-7.44337L1021.25,1114.5l-3.25.25-.25-5h-2Z" transform="translate(-1015.60841 -1102.57282)"/><path class="cls-1" d="M1093.5,1106l3.91667.75.5-2.91667,4.66667.91667-.5,3.25,1.25.25.58333-3.25,4.54167.875-.33333,2.83333,3.5.75-.70833,4.20833-3.83333-.79167-.5,3.16667-4.5-.95833.5-2.83333-1.66667-.33333L1100.5,1114.75l-4.58333-.83333.58333-3.08333-3.75-.91667Z" transform="translate(-1015.60841 -1102.57282)"/><path class="cls-1" d="M1092.66667,1116.33333l6,1.33333,1.91667,4.08333,1.58333-.58333.58333,1.5-2.33333,11.16667,13.5,2.66667.41667-2.16667,5.5,1.25.08333-.75,2.08333.58333,3.33333-15.16667,11.58333,2.41667-1,5.58333,1.08333.16667-4.75,21.83333-10-1.91667-4.91667-1.5-.08333-1.66667-14.25-3-2.33333,11.41667-8-1.58333,1.41667-6.91667-1.5-.33333,1.75-8.08333-1.58333-.25.33333-1.75-.75-1.25.91667-4.08333-1.66667-.58333,1.58333-6.58333-1.5-.41667Z" transform="translate(-1015.60841 -1102.57282)"/><path class="cls-1" d="M1070,1182.66667l15,3.83333-1.33333,5,7.66667,2,1.5-4.83333,26,7.5L1117.5,1202.5l-16.16667-4-2,7.66667-19.5-5.5,2.33333-7.5-13.83333-3.83333Z" transform="translate(-1015.60841 -1102.57282)"/><path class="cls-1" d="M1122.83333,1277.83333l15,14.66667s3.16667,4.5,3.83333,4.83333,9,11.16667,9,11.16667l-.83333,1.16667-1.5-.66667L1147,1310.5l-1.83333-1.83333-3-.66667-1.33333,1-.66667-1.33333-3.16667-.5-3.5-4.33333L1120,1300l.16667-1.66667-1.33333-.66667,3.5-17.16667-1.16667-.83333Z" transform="translate(-1015.60841 -1102.57282)"/></svg>